<?xml version="1.0" encoding="UTF-8"?>
<svg xmlns="http://www.w3.org/2000/svg" xmlns:xlink="http://www.w3.org/1999/xlink" width="1920" height="1080" viewBox="0 0 1920 1080">
<defs>
<g>
<g id="glyph-0-0">
<path d="M 0.125 -0.0585938 C 0.125 -0.078125 0.132812 -0.09375 0.144531 -0.109375 C 0.160156 -0.121094 0.175781 -0.128906 0.195312 -0.128906 C 0.214844 -0.128906 0.230469 -0.121094 0.246094 -0.109375 C 0.257812 -0.09375 0.265625 -0.078125 0.265625 -0.0585938 C 0.265625 -0.0390625 0.257812 -0.0234375 0.246094 -0.0078125 C 0.230469 0.00390625 0.214844 0.0117188 0.195312 0.0117188 C 0.175781 0.0117188 0.160156 0.00390625 0.144531 -0.0078125 C 0.132812 -0.0234375 0.125 -0.0390625 0.125 -0.0585938 Z M 0.0429688 -0.453125 C 0.0429688 -0.484375 0.0585938 -0.511719 0.0820312 -0.535156 C 0.109375 -0.5625 0.148438 -0.574219 0.199219 -0.574219 C 0.253906 -0.574219 0.292969 -0.5625 0.324219 -0.535156 C 0.351562 -0.507812 0.367188 -0.476562 0.367188 -0.4375 C 0.367188 -0.417969 0.363281 -0.402344 0.359375 -0.386719 C 0.347656 -0.359375 0.328125 -0.335938 0.296875 -0.316406 C 0.285156 -0.308594 0.277344 -0.304688 0.273438 -0.300781 C 0.269531 -0.296875 0.257812 -0.292969 0.246094 -0.285156 C 0.234375 -0.277344 0.222656 -0.265625 0.21875 -0.257812 C 0.210938 -0.246094 0.207031 -0.226562 0.207031 -0.191406 L 0.183594 -0.191406 L 0.179688 -0.226562 C 0.179688 -0.25 0.191406 -0.28125 0.210938 -0.320312 C 0.230469 -0.355469 0.242188 -0.394531 0.242188 -0.4375 C 0.242188 -0.472656 0.238281 -0.496094 0.226562 -0.515625 C 0.214844 -0.535156 0.195312 -0.542969 0.167969 -0.542969 C 0.152344 -0.542969 0.140625 -0.539062 0.132812 -0.53125 C 0.125 -0.523438 0.121094 -0.519531 0.121094 -0.507812 C 0.121094 -0.503906 0.121094 -0.503906 0.125 -0.5 C 0.125 -0.5 0.128906 -0.496094 0.128906 -0.492188 L 0.136719 -0.484375 C 0.140625 -0.476562 0.148438 -0.472656 0.148438 -0.464844 C 0.152344 -0.457031 0.152344 -0.449219 0.152344 -0.441406 C 0.152344 -0.425781 0.148438 -0.414062 0.136719 -0.40625 C 0.125 -0.394531 0.113281 -0.390625 0.101562 -0.390625 C 0.0859375 -0.390625 0.0703125 -0.394531 0.0625 -0.40625 C 0.0507812 -0.417969 0.0429688 -0.433594 0.0429688 -0.453125 Z "/>
</g>
</g>
</defs>
<g fill="rgb(0%, 0%, 0%)" fill-opacity="1">
<use xlink:href="#glyph-0-0" x="30" y="20.625"/>
</g>
</svg>
