<?xml version="1.0" encoding="UTF-8"?>
<svg xmlns="http://www.w3.org/2000/svg" xmlns:xlink="http://www.w3.org/1999/xlink" width="1920" height="1080" viewBox="0 0 1920 1080">
<defs>
<g>
<g id="glyph-0-0">
<path d="M 5.140625 -9.351562 C 5.644531 -9.351562 6.15625 -9.277344 6.6875 -9.128906 C 7.214844 -8.980469 7.511719 -8.90625 7.574219 -8.90625 C 7.707031 -8.90625 7.832031 -8.941406 7.949219 -9.011719 C 8.066406 -9.085938 8.148438 -9.199219 8.191406 -9.351562 L 8.484375 -9.351562 L 8.613281 -6.234375 L 8.292969 -6.234375 C 8.109375 -6.851562 7.867188 -7.351562 7.570312 -7.730469 C 7 -8.445312 6.234375 -8.804688 5.269531 -8.804688 C 4.296875 -8.804688 3.503906 -8.417969 2.886719 -7.648438 C 2.269531 -6.882812 1.960938 -5.824219 1.960938 -4.476562 C 1.960938 -3.238281 2.285156 -2.25 2.933594 -1.507812 C 3.582031 -0.769531 4.402344 -0.398438 5.398438 -0.398438 C 6.117188 -0.398438 6.78125 -0.570312 7.386719 -0.914062 C 7.734375 -1.109375 8.117188 -1.402344 8.53125 -1.796875 L 8.789062 -1.539062 C 8.480469 -1.152344 8.101562 -0.808594 7.644531 -0.515625 C 6.867188 -0.0195312 6.023438 0.230469 5.113281 0.230469 C 3.621094 0.230469 2.4375 -0.246094 1.558594 -1.199219 C 0.75 -2.082031 0.347656 -3.183594 0.347656 -4.503906 C 0.347656 -5.855469 0.773438 -6.988281 1.628906 -7.90625 C 2.527344 -8.871094 3.699219 -9.351562 5.140625 -9.351562 Z "/>
</g>
<g id="glyph-0-1">
<path d="M 0.351562 -3.148438 C 0.351562 -4.046875 0.636719 -4.808594 1.210938 -5.429688 C 1.78125 -6.050781 2.519531 -6.363281 3.417969 -6.363281 C 4.3125 -6.363281 5.054688 -6.066406 5.644531 -5.480469 C 6.230469 -4.890625 6.523438 -4.109375 6.523438 -3.132812 C 6.523438 -2.234375 6.238281 -1.453125 5.667969 -0.785156 C 5.097656 -0.121094 4.363281 0.210938 3.457031 0.210938 C 2.589844 0.210938 1.855469 -0.109375 1.253906 -0.746094 C 0.652344 -1.382812 0.351562 -2.183594 0.351562 -3.148438 Z M 3.226562 -5.953125 C 2.871094 -5.953125 2.5625 -5.835938 2.300781 -5.601562 C 1.847656 -5.191406 1.621094 -4.480469 1.621094 -3.472656 C 1.621094 -2.667969 1.804688 -1.917969 2.167969 -1.222656 C 2.53125 -0.523438 3.035156 -0.175781 3.683594 -0.175781 C 4.1875 -0.175781 4.578125 -0.410156 4.851562 -0.875 C 5.125 -1.339844 5.261719 -1.949219 5.261719 -2.707031 C 5.261719 -3.488281 5.089844 -4.226562 4.742188 -4.917969 C 4.394531 -5.609375 3.886719 -5.953125 3.226562 -5.953125 Z "/>
</g>
<g id="glyph-0-2">
<path d="M 0.71875 -2.136719 L 0.941406 -2.136719 C 1.046875 -1.621094 1.1875 -1.226562 1.363281 -0.949219 C 1.679688 -0.441406 2.144531 -0.191406 2.753906 -0.191406 C 3.09375 -0.191406 3.359375 -0.285156 3.558594 -0.472656 C 3.753906 -0.660156 3.851562 -0.902344 3.851562 -1.199219 C 3.851562 -1.390625 3.796875 -1.574219 3.683594 -1.75 C 3.570312 -1.925781 3.371094 -2.097656 3.085938 -2.265625 L 2.328125 -2.699219 C 1.769531 -2.996094 1.359375 -3.296875 1.097656 -3.601562 C 0.835938 -3.90625 0.707031 -4.261719 0.707031 -4.671875 C 0.707031 -5.179688 0.886719 -5.59375 1.246094 -5.921875 C 1.609375 -6.246094 2.0625 -6.410156 2.609375 -6.410156 C 2.851562 -6.410156 3.113281 -6.363281 3.402344 -6.273438 C 3.6875 -6.183594 3.851562 -6.136719 3.886719 -6.136719 C 3.96875 -6.136719 4.027344 -6.148438 4.0625 -6.171875 C 4.097656 -6.195312 4.128906 -6.230469 4.15625 -6.28125 L 4.320312 -6.28125 L 4.367188 -4.386719 L 4.15625 -4.386719 C 4.066406 -4.824219 3.945312 -5.167969 3.792969 -5.410156 C 3.511719 -5.863281 3.105469 -6.089844 2.578125 -6.089844 C 2.261719 -6.089844 2.011719 -5.992188 1.832031 -5.796875 C 1.652344 -5.605469 1.558594 -5.375 1.558594 -5.113281 C 1.558594 -4.699219 1.871094 -4.328125 2.496094 -4 L 3.390625 -3.519531 C 4.355469 -2.996094 4.835938 -2.386719 4.835938 -1.6875 C 4.835938 -1.15625 4.636719 -0.71875 4.234375 -0.378906 C 3.835938 -0.0390625 3.3125 0.128906 2.664062 0.128906 C 2.394531 0.128906 2.085938 0.0820312 1.742188 -0.0078125 C 1.398438 -0.0976562 1.195312 -0.140625 1.132812 -0.140625 C 1.078125 -0.140625 1.03125 -0.125 0.988281 -0.0859375 C 0.949219 -0.046875 0.917969 0 0.894531 0.0546875 L 0.71875 0.0546875 Z "/>
</g>
<g id="glyph-0-3">
<path d="M 3.535156 -6.253906 L 3.535156 -5.765625 L 2.148438 -5.765625 L 2.136719 -1.859375 C 2.136719 -1.515625 2.164062 -1.253906 2.222656 -1.078125 C 2.332031 -0.765625 2.546875 -0.609375 2.863281 -0.609375 C 3.023438 -0.609375 3.167969 -0.648438 3.285156 -0.726562 C 3.40625 -0.804688 3.542969 -0.925781 3.695312 -1.09375 L 3.871094 -0.941406 L 3.722656 -0.738281 C 3.488281 -0.421875 3.238281 -0.199219 2.976562 -0.0664062 C 2.714844 0.0625 2.460938 0.128906 2.21875 0.128906 C 1.683594 0.128906 1.324219 -0.109375 1.132812 -0.582031 C 1.027344 -0.839844 0.976562 -1.199219 0.976562 -1.65625 L 0.976562 -5.765625 L 0.238281 -5.765625 C 0.214844 -5.777344 0.199219 -5.792969 0.1875 -5.804688 C 0.175781 -5.820312 0.167969 -5.835938 0.167969 -5.859375 C 0.167969 -5.90625 0.179688 -5.941406 0.199219 -5.964844 C 0.21875 -5.988281 0.285156 -6.046875 0.394531 -6.136719 C 0.707031 -6.394531 0.929688 -6.605469 1.066406 -6.765625 C 1.207031 -6.925781 1.53125 -7.347656 2.042969 -8.035156 C 2.101562 -8.035156 2.136719 -8.03125 2.148438 -8.023438 C 2.160156 -8.015625 2.164062 -7.980469 2.164062 -7.921875 L 2.164062 -6.253906 Z "/>
</g>
<g id="glyph-0-4">
<rect x="0" y="0" width="0" height="0" mask="url(#mask-0)"/>
</g>
<g id="glyph-0-5">
<path d="M 0.269531 -0.191406 C 0.75 -0.214844 1.066406 -0.300781 1.21875 -0.457031 C 1.371094 -0.613281 1.445312 -0.941406 1.445312 -1.445312 L 1.445312 -5.796875 L 0.285156 -5.796875 L 0.285156 -6.253906 L 1.445312 -6.253906 C 1.445312 -6.96875 1.542969 -7.570312 1.734375 -8.0625 C 2.105469 -9.007812 2.789062 -9.480469 3.777344 -9.480469 C 4.175781 -9.480469 4.53125 -9.402344 4.847656 -9.242188 C 5.160156 -9.085938 5.316406 -8.875 5.316406 -8.605469 C 5.316406 -8.457031 5.261719 -8.324219 5.15625 -8.207031 C 5.046875 -8.089844 4.914062 -8.03125 4.761719 -8.03125 C 4.628906 -8.03125 4.515625 -8.070312 4.421875 -8.148438 C 4.328125 -8.226562 4.214844 -8.367188 4.082031 -8.566406 L 3.96875 -8.742188 C 3.90625 -8.835938 3.828125 -8.917969 3.742188 -8.984375 C 3.65625 -9.050781 3.539062 -9.082031 3.382812 -9.082031 C 3.039062 -9.082031 2.808594 -8.910156 2.6875 -8.574219 C 2.617188 -8.390625 2.582031 -8.152344 2.582031 -7.859375 L 2.582031 -6.253906 L 4.285156 -6.253906 L 4.285156 -5.796875 L 2.597656 -5.796875 L 2.597656 -1.445312 C 2.597656 -0.933594 2.667969 -0.605469 2.804688 -0.464844 C 2.941406 -0.320312 3.304688 -0.230469 3.886719 -0.191406 L 3.886719 0 L 0.269531 0 Z "/>
</g>
<g id="glyph-0-6">
<path d="M 0.0625 -0.222656 C 0.476562 -0.257812 0.753906 -0.332031 0.886719 -0.445312 C 1.023438 -0.554688 1.09375 -0.792969 1.09375 -1.152344 L 1.09375 -4.210938 C 1.09375 -4.660156 1.050781 -4.980469 0.964844 -5.171875 C 0.882812 -5.363281 0.730469 -5.460938 0.507812 -5.460938 C 0.464844 -5.460938 0.402344 -5.453125 0.328125 -5.441406 C 0.253906 -5.429688 0.175781 -5.417969 0.09375 -5.398438 L 0.09375 -5.621094 C 0.351562 -5.710938 0.617188 -5.804688 0.886719 -5.898438 C 1.160156 -5.996094 1.347656 -6.0625 1.453125 -6.105469 C 1.679688 -6.191406 1.910156 -6.285156 2.148438 -6.394531 C 2.179688 -6.394531 2.199219 -6.382812 2.207031 -6.363281 C 2.214844 -6.339844 2.21875 -6.292969 2.21875 -6.21875 L 2.21875 -5.105469 C 2.507812 -5.507812 2.785156 -5.824219 3.054688 -6.050781 C 3.324219 -6.277344 3.605469 -6.390625 3.894531 -6.390625 C 4.125 -6.390625 4.3125 -6.320312 4.457031 -6.183594 C 4.601562 -6.042969 4.671875 -5.871094 4.671875 -5.664062 C 4.671875 -5.476562 4.617188 -5.320312 4.507812 -5.195312 C 4.394531 -5.070312 4.257812 -5.003906 4.089844 -5.003906 C 3.917969 -5.003906 3.746094 -5.085938 3.570312 -5.242188 C 3.398438 -5.402344 3.261719 -5.480469 3.160156 -5.480469 C 3.003906 -5.480469 2.808594 -5.351562 2.578125 -5.097656 C 2.347656 -4.839844 2.230469 -4.578125 2.230469 -4.304688 L 2.230469 -1.246094 C 2.230469 -0.859375 2.320312 -0.589844 2.503906 -0.4375 C 2.683594 -0.285156 2.984375 -0.214844 3.40625 -0.222656 L 3.40625 0 L 0.0625 0 Z "/>
</g>
<g id="glyph-0-7">
<path d="M 3.464844 -9.191406 L 3.464844 -8.933594 C 3.191406 -8.921875 2.992188 -8.898438 2.875 -8.855469 C 2.667969 -8.78125 2.5625 -8.640625 2.5625 -8.4375 C 2.5625 -8.347656 2.574219 -8.257812 2.601562 -8.171875 C 2.625 -8.085938 2.664062 -7.976562 2.710938 -7.839844 L 4.71875 -2.617188 L 6.199219 -6.539062 L 5.539062 -8.214844 C 5.417969 -8.519531 5.234375 -8.726562 4.992188 -8.832031 C 4.847656 -8.894531 4.628906 -8.925781 4.332031 -8.933594 L 4.332031 -9.191406 L 8.050781 -9.191406 L 8.050781 -8.933594 C 7.703125 -8.929688 7.460938 -8.902344 7.332031 -8.855469 C 7.125 -8.78125 7.019531 -8.621094 7.019531 -8.382812 C 7.019531 -8.300781 7.027344 -8.230469 7.046875 -8.167969 C 7.066406 -8.109375 7.109375 -7.984375 7.183594 -7.792969 L 9.191406 -2.582031 L 10.925781 -7.296875 C 11.023438 -7.5625 11.09375 -7.800781 11.128906 -8.007812 C 11.152344 -8.125 11.164062 -8.222656 11.164062 -8.292969 C 11.164062 -8.550781 11.042969 -8.730469 10.796875 -8.832031 C 10.660156 -8.890625 10.457031 -8.921875 10.1875 -8.933594 L 10.1875 -9.191406 L 12.941406 -9.191406 L 12.941406 -8.933594 C 12.691406 -8.894531 12.5 -8.839844 12.371094 -8.761719 C 12.136719 -8.632812 11.960938 -8.40625 11.839844 -8.085938 L 10.363281 -3.953125 L 9.785156 -2.359375 L 8.953125 0.164062 L 8.742188 0.164062 L 8.179688 -1.445312 L 6.523438 -5.71875 L 4.386719 0.164062 L 4.179688 0.164062 L 3.179688 -2.726562 L 1.988281 -5.976562 C 1.496094 -7.3125 1.152344 -8.136719 0.960938 -8.441406 C 0.769531 -8.746094 0.46875 -8.910156 0.0625 -8.933594 L 0.0625 -9.191406 Z "/>
</g>
<g id="glyph-0-8">
<path d="M 1.140625 -8.753906 C 1.140625 -8.949219 1.207031 -9.117188 1.34375 -9.257812 C 1.480469 -9.398438 1.644531 -9.46875 1.84375 -9.46875 C 2.039062 -9.46875 2.207031 -9.398438 2.34375 -9.261719 C 2.480469 -9.125 2.550781 -8.953125 2.550781 -8.753906 C 2.550781 -8.5625 2.480469 -8.394531 2.34375 -8.257812 C 2.207031 -8.121094 2.039062 -8.050781 1.84375 -8.050781 C 1.644531 -8.050781 1.476562 -8.121094 1.34375 -8.257812 C 1.207031 -8.394531 1.140625 -8.5625 1.140625 -8.753906 Z M 0.269531 -0.191406 C 0.753906 -0.234375 1.058594 -0.316406 1.1875 -0.4375 C 1.3125 -0.558594 1.375 -0.882812 1.375 -1.410156 L 1.375 -4.644531 C 1.375 -4.9375 1.355469 -5.144531 1.316406 -5.257812 C 1.25 -5.441406 1.105469 -5.535156 0.886719 -5.535156 C 0.839844 -5.535156 0.789062 -5.53125 0.742188 -5.519531 C 0.695312 -5.511719 0.558594 -5.476562 0.332031 -5.410156 L 0.332031 -5.621094 L 0.625 -5.71875 C 1.414062 -5.976562 1.964844 -6.167969 2.277344 -6.300781 C 2.40625 -6.355469 2.488281 -6.382812 2.523438 -6.382812 C 2.53125 -6.351562 2.535156 -6.316406 2.535156 -6.28125 L 2.535156 -1.410156 C 2.535156 -0.894531 2.597656 -0.570312 2.722656 -0.441406 C 2.847656 -0.308594 3.128906 -0.226562 3.566406 -0.191406 L 3.566406 0 L 0.269531 0 Z "/>
</g>
<g id="glyph-0-9">
<path d="M 1.363281 1.253906 C 1.363281 1.632812 1.578125 1.898438 2.003906 2.042969 C 2.429688 2.1875 2.921875 2.257812 3.472656 2.257812 C 4.222656 2.257812 4.832031 2.128906 5.304688 1.867188 C 5.773438 1.609375 6.007812 1.289062 6.007812 0.910156 C 6.007812 0.605469 5.820312 0.40625 5.4375 0.304688 C 5.203125 0.246094 4.757812 0.210938 4.101562 0.203125 C 3.933594 0.199219 3.757812 0.191406 3.574219 0.1875 C 3.390625 0.179688 3.21875 0.171875 3.066406 0.164062 C 2.964844 0.160156 2.804688 0.140625 2.582031 0.109375 C 2.363281 0.078125 2.199219 0.0507812 2.089844 0.0273438 C 2.035156 0.0273438 1.902344 0.167969 1.6875 0.453125 C 1.472656 0.742188 1.363281 1.011719 1.363281 1.253906 Z M 2.246094 -2.277344 C 1.832031 -2.414062 1.511719 -2.65625 1.285156 -3.003906 C 1.058594 -3.351562 0.941406 -3.742188 0.941406 -4.179688 C 0.941406 -4.707031 1.152344 -5.207031 1.574219 -5.683594 C 1.996094 -6.15625 2.589844 -6.394531 3.355469 -6.394531 C 3.6875 -6.394531 4.050781 -6.316406 4.449219 -6.160156 C 4.847656 -6.003906 5.230469 -5.925781 5.59375 -5.925781 C 5.691406 -5.925781 5.832031 -5.929688 6.027344 -5.9375 C 6.21875 -5.945312 6.355469 -5.949219 6.441406 -5.949219 L 6.523438 -5.949219 L 6.523438 -5.398438 L 5.351562 -5.398438 C 5.433594 -5.207031 5.496094 -5.042969 5.539062 -4.902344 C 5.617188 -4.640625 5.65625 -4.390625 5.65625 -4.15625 C 5.65625 -3.640625 5.441406 -3.167969 5.015625 -2.738281 C 4.589844 -2.304688 4.011719 -2.089844 3.289062 -2.089844 C 3.175781 -2.089844 2.972656 -2.109375 2.679688 -2.148438 C 2.546875 -2.148438 2.375 -2.039062 2.160156 -1.816406 C 1.945312 -1.59375 1.839844 -1.414062 1.839844 -1.273438 C 1.839844 -1.128906 1.996094 -1.023438 2.3125 -0.957031 C 2.519531 -0.910156 2.75 -0.886719 3.003906 -0.886719 C 4.167969 -0.886719 4.957031 -0.824219 5.371094 -0.691406 C 6.054688 -0.480469 6.394531 -0.0234375 6.394531 0.679688 C 6.394531 1.394531 5.996094 1.960938 5.199219 2.386719 C 4.402344 2.8125 3.59375 3.023438 2.78125 3.023438 C 2.039062 3.023438 1.453125 2.875 1.015625 2.574219 C 0.582031 2.273438 0.367188 1.957031 0.367188 1.628906 C 0.367188 1.464844 0.425781 1.304688 0.539062 1.148438 C 0.65625 0.992188 0.882812 0.761719 1.222656 0.453125 L 1.667969 0.0546875 L 1.75 -0.0273438 C 1.542969 -0.109375 1.386719 -0.1875 1.28125 -0.265625 C 1.101562 -0.40625 1.011719 -0.566406 1.011719 -0.746094 C 1.011719 -0.914062 1.089844 -1.097656 1.246094 -1.296875 C 1.402344 -1.5 1.734375 -1.828125 2.246094 -2.277344 Z M 3.535156 -2.414062 C 3.78125 -2.414062 3.988281 -2.480469 4.15625 -2.617188 C 4.429688 -2.835938 4.5625 -3.210938 4.5625 -3.75 C 4.5625 -4.179688 4.453125 -4.664062 4.234375 -5.203125 C 4.015625 -5.742188 3.652344 -6.007812 3.140625 -6.007812 C 2.695312 -6.007812 2.390625 -5.796875 2.222656 -5.378906 C 2.136719 -5.15625 2.09375 -4.882812 2.09375 -4.558594 C 2.09375 -4.007812 2.230469 -3.511719 2.496094 -3.074219 C 2.761719 -2.632812 3.109375 -2.414062 3.535156 -2.414062 Z "/>
</g>
<g id="glyph-0-10">
<path d="M 0.285156 -0.191406 C 0.707031 -0.230469 0.988281 -0.316406 1.140625 -0.445312 C 1.289062 -0.574219 1.363281 -0.824219 1.363281 -1.199219 L 1.363281 -7.828125 C 1.363281 -8.125 1.339844 -8.332031 1.289062 -8.445312 C 1.199219 -8.632812 1.015625 -8.726562 0.738281 -8.726562 C 0.675781 -8.726562 0.605469 -8.722656 0.53125 -8.707031 C 0.457031 -8.695312 0.363281 -8.675781 0.25 -8.648438 L 0.25 -8.871094 C 0.859375 -9.035156 1.597656 -9.25 2.457031 -9.523438 C 2.488281 -9.523438 2.507812 -9.507812 2.511719 -9.480469 C 2.519531 -9.453125 2.523438 -9.394531 2.523438 -9.304688 L 2.523438 -1.171875 C 2.523438 -0.78125 2.589844 -0.527344 2.726562 -0.410156 C 2.863281 -0.296875 3.140625 -0.222656 3.566406 -0.191406 L 3.566406 0 L 0.285156 0 Z "/>
</g>
<g id="glyph-0-11">
<path d="M 3.179688 -6.363281 C 3.816406 -6.363281 4.375 -6.140625 4.855469 -5.699219 C 5.335938 -5.257812 5.574219 -4.632812 5.574219 -3.824219 L 1.269531 -3.824219 C 1.3125 -2.777344 1.550781 -2.011719 1.980469 -1.53125 C 2.410156 -1.054688 2.917969 -0.8125 3.507812 -0.8125 C 3.980469 -0.8125 4.382812 -0.9375 4.707031 -1.1875 C 5.03125 -1.4375 5.332031 -1.789062 5.609375 -2.246094 L 5.847656 -2.164062 C 5.660156 -1.589844 5.3125 -1.058594 4.804688 -0.570312 C 4.296875 -0.0820312 3.671875 0.164062 2.9375 0.164062 C 2.085938 0.164062 1.429688 -0.160156 0.964844 -0.800781 C 0.503906 -1.441406 0.269531 -2.179688 0.269531 -3.019531 C 0.269531 -3.925781 0.539062 -4.710938 1.078125 -5.371094 C 1.617188 -6.03125 2.316406 -6.363281 3.179688 -6.363281 Z M 2.789062 -5.867188 C 2.273438 -5.867188 1.878906 -5.636719 1.605469 -5.179688 C 1.460938 -4.9375 1.359375 -4.628906 1.296875 -4.257812 L 4.15625 -4.257812 C 4.105469 -4.710938 4.023438 -5.046875 3.898438 -5.269531 C 3.675781 -5.667969 3.308594 -5.867188 2.789062 -5.867188 Z "/>
</g>
</g>
<image id="source-9" x="0" y="0" width="0" height="0"/>
<mask id="mask-0">
<use xlink:href="#source-9"/>
</mask>
</defs>
<g fill="rgb(100%, 100%, 100%)" fill-opacity="1">
<use xlink:href="#glyph-0-0" x="30" y="30.416992"/>
<use xlink:href="#glyph-0-1" x="39" y="30.416992"/>
<use xlink:href="#glyph-0-2" x="46" y="30.416992"/>
<use xlink:href="#glyph-0-3" x="51" y="30.416992"/>
<use xlink:href="#glyph-0-4" x="55" y="30.416992"/>
<use xlink:href="#glyph-0-5" x="58" y="30.416992"/>
<use xlink:href="#glyph-0-1" x="63" y="30.416992"/>
<use xlink:href="#glyph-0-6" x="70" y="30.416992"/>
<use xlink:href="#glyph-0-4" x="75" y="30.416992"/>
<use xlink:href="#glyph-0-7" x="78" y="30.416992"/>
<use xlink:href="#glyph-0-8" x="91" y="30.416992"/>
<use xlink:href="#glyph-0-9" x="95" y="30.416992"/>
<use xlink:href="#glyph-0-9" x="102" y="30.416992"/>
<use xlink:href="#glyph-0-10" x="109" y="30.416992"/>
<use xlink:href="#glyph-0-11" x="113" y="30.416992"/>
<use xlink:href="#glyph-0-2" x="119" y="30.416992"/>
</g>
</svg>
