<?xml version="1.0" encoding="UTF-8"?>
<svg xmlns="http://www.w3.org/2000/svg" xmlns:xlink="http://www.w3.org/1999/xlink" width="1920" height="1080" viewBox="0 0 1920 1080">
<defs>
<g>
<g id="glyph-0-0">
<path d="M 0.570312 -0.765625 C 4.117188 -4.605469 6.429688 -7.28125 7.503906 -8.789062 C 9.152344 -11.066406 9.976562 -13.085938 9.976562 -14.84375 C 9.976562 -15.886719 9.660156 -16.859375 9.023438 -17.765625 C 8.390625 -18.671875 7.40625 -19.125 6.070312 -19.125 C 4.898438 -19.125 3.910156 -18.71875 3.109375 -17.902344 C 2.675781 -17.457031 2.289062 -16.863281 1.953125 -16.113281 L 1.042969 -16.113281 C 1.78125 -18.425781 2.800781 -20.136719 4.101562 -21.25 C 5.402344 -22.359375 6.867188 -22.917969 8.496094 -22.917969 C 10.035156 -22.917969 11.4375 -22.382812 12.695312 -21.3125 C 13.953125 -20.246094 14.582031 -18.675781 14.582031 -16.601562 C 14.582031 -15.515625 14.289062 -14.402344 13.695312 -13.265625 C 13.105469 -12.125 12.109375 -10.886719 10.710938 -9.554688 L 5.632812 -4.703125 L 5.632812 -4.425781 L 10.367188 -4.425781 C 12.015625 -4.425781 13.09375 -4.5625 13.597656 -4.832031 C 14.101562 -5.105469 14.609375 -5.832031 15.121094 -7.015625 L 15.917969 -7.015625 L 14.421875 0 L 0.570312 0 Z "/>
</g>
<g id="glyph-0-1">
<path d="M 0.730469 -2.652344 C 0.730469 -3.21875 0.917969 -3.695312 1.285156 -4.085938 C 1.65625 -4.476562 2.152344 -4.671875 2.78125 -4.671875 C 3.585938 -4.671875 4.664062 -4.1875 6.023438 -3.214844 C 7.378906 -2.242188 8.429688 -1.757812 9.179688 -1.757812 C 10.058594 -1.757812 10.816406 -2.066406 11.457031 -2.683594 C 12.097656 -3.304688 12.417969 -4.140625 12.417969 -5.191406 C 12.417969 -6.265625 12.054688 -7.175781 11.328125 -7.925781 C 10.601562 -8.675781 9.78125 -9.253906 8.871094 -9.667969 C 7.894531 -10.113281 6.785156 -10.4375 5.550781 -10.644531 C 4.746094 -10.773438 3.460938 -10.898438 1.691406 -11.019531 L 4.929688 -22.527344 L 15.65625 -22.527344 L 14.226562 -18.277344 L 4.964844 -18.277344 L 4.230469 -15.574219 C 6.8125 -15.5 8.910156 -15.125 10.515625 -14.453125 C 13.53125 -13.195312 15.039062 -10.960938 15.039062 -7.746094 C 15.039062 -5.402344 14.136719 -3.476562 12.335938 -1.960938 C 10.535156 -0.449219 8.273438 0.308594 5.550781 0.308594 C 4.171875 0.308594 3.023438 0.0390625 2.109375 -0.503906 C 1.191406 -1.046875 0.730469 -1.761719 0.730469 -2.652344 Z "/>
</g>
<g id="glyph-0-2">
<path d="M 7.878906 -12.53125 C 7.25 -12.53125 6.847656 -12.433594 6.671875 -12.238281 C 6.5 -12.042969 6.378906 -11.71875 6.316406 -11.261719 C 6.28125 -10.992188 6.25 -10.605469 6.21875 -10.097656 C 6.183594 -9.59375 6.167969 -9.050781 6.167969 -8.464844 C 6.167969 -7.3125 6.191406 -6.3125 6.234375 -5.460938 C 6.277344 -4.609375 6.359375 -3.867188 6.476562 -3.238281 C 6.617188 -2.457031 6.847656 -1.796875 7.167969 -1.261719 C 7.488281 -0.722656 7.984375 -0.457031 8.660156 -0.457031 C 9.601562 -0.457031 10.214844 -0.925781 10.496094 -1.871094 C 10.671875 -2.457031 10.757812 -3.644531 10.757812 -5.4375 C 10.757812 -8.136719 10.53125 -9.996094 10.074219 -11.011719 C 9.617188 -12.027344 8.886719 -12.53125 7.878906 -12.53125 Z M 15.65625 -22.054688 C 13.300781 -21.640625 11.386719 -20.707031 9.902344 -19.253906 C 8.421875 -17.800781 7.394531 -15.933594 6.820312 -13.65625 L 6.980469 -13.542969 C 7.371094 -13.671875 7.710938 -13.769531 7.992188 -13.835938 C 8.546875 -13.964844 9.113281 -14.03125 9.699219 -14.03125 C 11.339844 -14.03125 12.765625 -13.480469 13.980469 -12.386719 C 15.195312 -11.289062 15.804688 -9.609375 15.804688 -7.339844 C 15.804688 -4.800781 15.070312 -2.863281 13.605469 -1.53125 C 12.140625 -0.195312 10.460938 0.472656 8.5625 0.472656 C 6.445312 0.472656 4.640625 -0.367188 3.148438 -2.042969 C 1.65625 -3.71875 0.910156 -6.03125 0.910156 -8.984375 C 0.910156 -13.03125 2.410156 -16.339844 5.402344 -18.914062 C 8.125 -21.246094 11.546875 -22.578125 15.65625 -22.917969 Z "/>
</g>
</g>
</defs>
<g fill="rgb(100%, 100%, 0%)" fill-opacity="1">
<use xlink:href="#glyph-0-0" x="30" y="45"/>
<use xlink:href="#glyph-0-1" x="47" y="45"/>
<use xlink:href="#glyph-0-2" x="64" y="45"/>
</g>
</svg>
