<?xml version="1.0" encoding="UTF-8"?>
<svg xmlns="http://www.w3.org/2000/svg" xmlns:xlink="http://www.w3.org/1999/xlink" width="1920" height="1080" viewBox="0 0 1920 1080">
<defs>
<g>
<g id="glyph-0-0">
<path d="M 0.585938 -15.019531 L 13.964844 -15.019531 L 13.988281 -10.535156 L 13.347656 -10.535156 C 13.136719 -12.132812 12.535156 -13.214844 11.546875 -13.78125 C 10.988281 -14.09375 10.15625 -14.261719 9.050781 -14.289062 L 9.050781 -2.59375 C 9.050781 -1.777344 9.191406 -1.234375 9.476562 -0.964844 C 9.761719 -0.699219 10.359375 -0.5625 11.261719 -0.5625 L 11.261719 0 L 3.34375 0 L 3.34375 -0.5625 C 4.210938 -0.5625 4.785156 -0.699219 5.074219 -0.972656 C 5.359375 -1.242188 5.5 -1.78125 5.5 -2.59375 L 5.5 -14.289062 C 4.414062 -14.261719 3.585938 -14.089844 3.003906 -13.78125 C 1.941406 -13.203125 1.34375 -12.121094 1.203125 -10.535156 L 0.5625 -10.535156 Z "/>
</g>
<g id="glyph-0-1">
<path d="M 0.359375 -0.5625 C 1.109375 -0.601562 1.625 -0.742188 1.898438 -0.988281 C 2.171875 -1.234375 2.3125 -1.769531 2.3125 -2.59375 L 2.3125 -12.414062 C 2.3125 -13.273438 2.148438 -13.835938 1.824219 -14.09375 C 1.605469 -14.269531 1.117188 -14.386719 0.359375 -14.453125 L 0.359375 -15.019531 L 7.507812 -15.019531 C 8.992188 -15.019531 10.191406 -14.863281 11.109375 -14.550781 C 12.890625 -13.921875 13.78125 -12.789062 13.78125 -11.15625 C 13.78125 -9.945312 13.335938 -8.996094 12.445312 -8.300781 C 11.765625 -7.78125 11.046875 -7.449219 10.285156 -7.300781 L 14.757812 -0.976562 C 14.878906 -0.804688 15.011719 -0.6875 15.148438 -0.636719 C 15.285156 -0.582031 15.457031 -0.546875 15.65625 -0.53125 L 15.65625 0 L 11.109375 0 L 6.5 -6.945312 L 5.914062 -6.945312 L 5.914062 -2.59375 C 5.914062 -1.8125 6.042969 -1.285156 6.304688 -1.015625 C 6.566406 -0.742188 7.085938 -0.59375 7.867188 -0.5625 L 7.867188 0 L 0.359375 0 Z M 5.914062 -7.660156 C 7.367188 -7.683594 8.40625 -7.886719 9.035156 -8.273438 C 9.660156 -8.660156 9.972656 -9.554688 9.972656 -10.960938 C 9.972656 -11.820312 9.851562 -12.5 9.613281 -13 C 9.203125 -13.847656 8.449219 -14.269531 7.355469 -14.269531 C 6.761719 -14.269531 6.375 -14.195312 6.191406 -14.046875 C 6.007812 -13.898438 5.914062 -13.652344 5.914062 -13.3125 Z "/>
</g>
<g id="glyph-0-2">
<path d="M 7.867188 -15.019531 L 7.867188 -14.453125 C 7.007812 -14.425781 6.429688 -14.289062 6.140625 -14.050781 C 5.851562 -13.8125 5.707031 -13.265625 5.707031 -12.414062 L 5.707031 -4.980469 C 5.707031 -3.851562 5.839844 -2.980469 6.109375 -2.367188 C 6.59375 -1.222656 7.523438 -0.652344 8.898438 -0.652344 C 10.605469 -0.652344 11.757812 -1.285156 12.359375 -2.550781 C 12.691406 -3.246094 12.859375 -4.21875 12.859375 -5.46875 L 12.859375 -12.261719 C 12.859375 -13.058594 12.710938 -13.605469 12.417969 -13.90625 C 12.125 -14.207031 11.550781 -14.386719 10.699219 -14.453125 L 10.699219 -15.019531 L 15.582031 -15.019531 L 15.582031 -14.453125 C 14.871094 -14.316406 14.40625 -14.148438 14.175781 -13.949219 C 13.949219 -13.75 13.835938 -13.292969 13.835938 -12.578125 L 13.835938 -5.46875 C 13.835938 -3.582031 13.378906 -2.125 12.46875 -1.097656 C 11.554688 -0.0703125 10.125 0.445312 8.171875 0.445312 C 5.617188 0.445312 3.871094 -0.316406 2.929688 -1.84375 C 2.429688 -2.65625 2.179688 -3.699219 2.179688 -4.980469 L 2.179688 -12.414062 C 2.179688 -13.253906 2.070312 -13.78125 1.851562 -13.996094 C 1.628906 -14.214844 1.132812 -14.367188 0.359375 -14.453125 L 0.359375 -15.019531 Z "/>
</g>
<g id="glyph-0-3">
<path d="M 0.402344 -0.5625 C 1.007812 -0.585938 1.441406 -0.664062 1.703125 -0.804688 C 2.144531 -1.035156 2.367188 -1.476562 2.367188 -2.125 L 2.367188 -12.878906 C 2.367188 -13.53125 2.15625 -13.96875 1.734375 -14.191406 C 1.488281 -14.328125 1.046875 -14.417969 0.402344 -14.453125 L 0.402344 -15.019531 L 8.171875 -15.019531 L 8.171875 -14.453125 C 7.265625 -14.425781 6.664062 -14.296875 6.363281 -14.074219 C 6.0625 -13.847656 5.914062 -13.296875 5.914062 -12.414062 L 5.914062 -1.921875 C 5.914062 -1.429688 6.042969 -1.101562 6.300781 -0.945312 C 6.554688 -0.785156 7.058594 -0.707031 7.800781 -0.707031 C 9.140625 -0.707031 10.261719 -1 11.171875 -1.589844 C 12.078125 -2.179688 12.863281 -3.328125 13.519531 -5.035156 L 14.171875 -5.035156 L 13.269531 0 L 0.402344 0 Z "/>
</g>
<g id="glyph-0-4">
<path d="M 7.757812 -15.019531 L 7.757812 -14.453125 C 6.992188 -14.410156 6.5 -14.351562 6.28125 -14.28125 C 6.066406 -14.207031 5.957031 -14.054688 5.957031 -13.824219 C 5.957031 -13.722656 5.976562 -13.613281 6.015625 -13.492188 C 6.054688 -13.375 6.148438 -13.160156 6.292969 -12.847656 L 9.070312 -7.507812 L 9.253906 -7.507812 L 11.644531 -11.414062 C 11.796875 -11.652344 11.953125 -11.945312 12.121094 -12.292969 C 12.375 -12.820312 12.5 -13.210938 12.5 -13.464844 C 12.5 -13.855469 12.34375 -14.117188 12.035156 -14.246094 C 11.824219 -14.332031 11.359375 -14.402344 10.644531 -14.453125 L 10.644531 -15.019531 L 15.527344 -15.019531 L 15.527344 -14.453125 C 15.171875 -14.386719 14.890625 -14.3125 14.679688 -14.226562 C 14.414062 -14.089844 14.1875 -13.878906 14.007812 -13.597656 L 9.765625 -6.683594 L 9.765625 -2.59375 C 9.765625 -1.746094 9.910156 -1.203125 10.199219 -0.960938 C 10.488281 -0.71875 11.03125 -0.585938 11.828125 -0.5625 L 11.828125 0 L 4.113281 0 L 4.113281 -0.5625 C 4.9375 -0.585938 5.484375 -0.726562 5.757812 -0.988281 C 6.027344 -1.25 6.164062 -1.78125 6.164062 -2.59375 L 6.164062 -5.859375 L 2.105469 -13.238281 C 1.835938 -13.722656 1.507812 -14.0625 1.117188 -14.257812 C 0.855469 -14.382812 0.59375 -14.445312 0.324219 -14.453125 L 0.324219 -15.019531 Z "/>
</g>
<g id="glyph-0-5">
<rect x="0" y="0" width="0" height="0" mask="url(#mask-0)"/>
</g>
<g id="glyph-0-6">
<path d="M 0.359375 -0.5625 C 1.183594 -0.585938 1.714844 -0.742188 1.953125 -1.035156 C 2.191406 -1.328125 2.3125 -1.761719 2.3125 -2.332031 L 2.3125 -12.859375 C 1.632812 -13.617188 1.210938 -14.066406 1.050781 -14.199219 C 0.894531 -14.332031 0.675781 -14.417969 0.402344 -14.453125 L 0.402344 -15.019531 L 5.109375 -15.019531 L 12.75 -5.652344 L 12.859375 -5.652344 L 12.859375 -12.261719 C 12.859375 -13.015625 12.722656 -13.550781 12.445312 -13.871094 C 12.171875 -14.195312 11.621094 -14.386719 10.796875 -14.453125 L 10.796875 -15.019531 L 15.582031 -15.019531 L 15.582031 -14.453125 C 14.886719 -14.335938 14.421875 -14.183594 14.1875 -13.988281 C 13.953125 -13.792969 13.835938 -13.355469 13.835938 -12.675781 L 13.835938 0.414062 L 13.214844 0.414062 L 3.441406 -11.46875 L 3.289062 -11.46875 L 3.289062 -2.746094 C 3.289062 -2.066406 3.382812 -1.585938 3.570312 -1.300781 C 3.867188 -0.847656 4.472656 -0.601562 5.394531 -0.5625 L 5.394531 0 L 0.359375 0 Z "/>
</g>
<g id="glyph-0-7">
<path d="M 0.359375 -0.5625 C 0.988281 -0.578125 1.441406 -0.65625 1.714844 -0.792969 C 2.164062 -1.023438 2.386719 -1.46875 2.386719 -2.125 L 2.386719 -12.878906 C 2.386719 -13.539062 2.171875 -13.980469 1.746094 -14.203125 C 1.484375 -14.339844 1.023438 -14.425781 0.359375 -14.453125 L 0.359375 -15.019531 L 8.128906 -15.019531 L 8.128906 -14.453125 C 7.433594 -14.425781 6.957031 -14.34375 6.695312 -14.214844 C 6.261719 -13.992188 6.042969 -13.546875 6.042969 -12.878906 L 6.042969 -2.125 C 6.042969 -1.503906 6.21875 -1.089844 6.566406 -0.878906 C 6.914062 -0.667969 7.433594 -0.5625 8.128906 -0.5625 L 8.128906 0 L 0.359375 0 Z "/>
</g>
<g id="glyph-0-8">
<path d="M 7.8125 -15.019531 L 7.8125 -14.453125 C 7.015625 -14.410156 6.5 -14.34375 6.265625 -14.253906 C 6.03125 -14.164062 5.914062 -13.9375 5.914062 -13.574219 C 5.914062 -13.457031 5.921875 -13.351562 5.941406 -13.253906 C 5.960938 -13.15625 5.992188 -13.050781 6.042969 -12.933594 L 9.40625 -4.730469 L 9.539062 -4.730469 L 12.445312 -12.238281 C 12.511719 -12.40625 12.570312 -12.578125 12.621094 -12.75 C 12.707031 -13.03125 12.75 -13.261719 12.75 -13.433594 C 12.75 -13.851562 12.625 -14.113281 12.375 -14.21875 C 12.125 -14.324219 11.617188 -14.402344 10.851562 -14.453125 L 10.851562 -15.019531 L 15.582031 -15.019531 L 15.582031 -14.476562 C 15.039062 -14.417969 14.632812 -14.261719 14.359375 -14.003906 C 14.089844 -13.746094 13.828125 -13.296875 13.574219 -12.652344 L 8.507812 0.414062 L 7.921875 0.414062 L 2.203125 -12.902344 C 1.972656 -13.4375 1.734375 -13.820312 1.492188 -14.058594 C 1.25 -14.292969 0.871094 -14.433594 0.359375 -14.476562 L 0.359375 -15.019531 Z "/>
</g>
<g id="glyph-0-9">
<path d="M 0.359375 0 L 0.359375 -0.5625 C 0.996094 -0.585938 1.445312 -0.671875 1.714844 -0.824219 C 2.125 -1.054688 2.332031 -1.488281 2.332031 -2.125 L 2.332031 -12.878906 C 2.332031 -13.53125 2.121094 -13.96875 1.691406 -14.191406 C 1.445312 -14.328125 1 -14.417969 0.359375 -14.453125 L 0.359375 -15.019531 L 13.164062 -15.019531 L 13.164062 -10.535156 L 12.621094 -10.535156 C 12.339844 -11.96875 11.859375 -12.949219 11.183594 -13.476562 C 10.507812 -14.003906 9.273438 -14.269531 7.488281 -14.269531 C 6.808594 -14.269531 6.375 -14.199219 6.191406 -14.058594 C 6.007812 -13.917969 5.914062 -13.636719 5.914062 -13.214844 L 5.914062 -8.074219 C 7.179688 -8.058594 8.035156 -8.289062 8.484375 -8.761719 C 8.933594 -9.234375 9.277344 -10.101562 9.515625 -11.359375 L 10.082031 -11.359375 L 10.082031 -3.851562 L 9.515625 -3.851562 C 9.355469 -5.117188 9.035156 -6.007812 8.546875 -6.527344 C 8.058594 -7.042969 7.179688 -7.300781 5.914062 -7.300781 L 5.914062 -1.921875 C 5.914062 -1.449219 6.035156 -1.128906 6.277344 -0.960938 C 6.519531 -0.789062 7.015625 -0.707031 7.769531 -0.707031 C 9.1875 -0.707031 10.34375 -0.980469 11.242188 -1.53125 C 12.140625 -2.082031 12.933594 -3.109375 13.628906 -4.621094 L 14.246094 -4.621094 L 13.347656 0 Z "/>
</g>
<g id="glyph-0-10">
<path d="M 0.769531 -5.1875 L 1.410156 -5.1875 C 1.773438 -3.53125 2.355469 -2.324219 3.164062 -1.574219 C 3.96875 -0.820312 4.894531 -0.445312 5.933594 -0.445312 C 6.949219 -0.445312 7.667969 -0.703125 8.09375 -1.222656 C 8.519531 -1.738281 8.734375 -2.28125 8.734375 -2.855469 C 8.734375 -3.519531 8.511719 -4.0625 8.0625 -4.480469 C 7.765625 -4.757812 7.167969 -5.113281 6.273438 -5.554688 L 4.828125 -6.273438 C 3.394531 -6.980469 2.386719 -7.683594 1.800781 -8.375 C 1.214844 -9.070312 0.921875 -9.929688 0.921875 -10.949219 C 0.921875 -12.035156 1.3125 -13.046875 2.089844 -13.988281 C 2.867188 -14.925781 4.058594 -15.398438 5.664062 -15.398438 C 6.480469 -15.398438 7.273438 -15.273438 8.035156 -15.027344 C 8.796875 -14.78125 9.234375 -14.660156 9.34375 -14.660156 C 9.589844 -14.660156 9.757812 -14.730469 9.851562 -14.871094 C 9.945312 -15.011719 10.023438 -15.199219 10.082031 -15.429688 L 10.742188 -15.429688 L 10.742188 -10.589844 L 10.125 -10.589844 C 9.828125 -11.710938 9.304688 -12.675781 8.554688 -13.488281 C 7.808594 -14.296875 6.898438 -14.703125 5.828125 -14.703125 C 5.074219 -14.703125 4.480469 -14.5 4.042969 -14.089844 C 3.605469 -13.679688 3.386719 -13.183594 3.386719 -12.597656 C 3.386719 -11.894531 3.589844 -11.371094 4.003906 -11.023438 C 4.410156 -10.667969 5.308594 -10.148438 6.707031 -9.460938 L 8.375 -8.636719 C 9.121094 -8.269531 9.714844 -7.859375 10.15625 -7.410156 C 10.980469 -6.570312 11.394531 -5.550781 11.394531 -4.351562 C 11.394531 -3.230469 10.949219 -2.171875 10.0625 -1.175781 C 9.175781 -0.183594 7.757812 0.316406 5.804688 0.316406 C 5.355469 0.316406 4.902344 0.273438 4.445312 0.191406 C 3.984375 0.105469 3.53125 -0.0234375 3.082031 -0.195312 L 2.648438 -0.359375 C 2.546875 -0.386719 2.449219 -0.410156 2.355469 -0.429688 C 2.261719 -0.445312 2.179688 -0.457031 2.117188 -0.457031 C 1.886719 -0.457031 1.726562 -0.390625 1.636719 -0.253906 C 1.550781 -0.121094 1.476562 0.0703125 1.410156 0.316406 L 0.769531 0.316406 Z "/>
</g>
<g id="glyph-0-11">
<path d="M 8.734375 -5.242188 L 6.609375 -10.382812 L 6.421875 -10.382812 L 4.417969 -5.242188 Z M 0.402344 -0.5625 C 0.9375 -0.601562 1.367188 -0.84375 1.691406 -1.292969 C 1.902344 -1.574219 2.203125 -2.195312 2.59375 -3.15625 L 7.53125 -15.320312 L 8.148438 -15.320312 L 13.109375 -3.644531 C 13.664062 -2.335938 14.082031 -1.492188 14.355469 -1.113281 C 14.628906 -0.734375 15.019531 -0.550781 15.527344 -0.5625 L 15.527344 0 L 8.332031 0 L 8.332031 -0.5625 C 9.054688 -0.59375 9.53125 -0.65625 9.761719 -0.75 C 9.988281 -0.84375 10.101562 -1.082031 10.101562 -1.464844 C 10.101562 -1.636719 10.042969 -1.902344 9.929688 -2.257812 C 9.855469 -2.46875 9.757812 -2.71875 9.636719 -3.015625 L 9.070312 -4.363281 L 4.078125 -4.363281 C 3.753906 -3.480469 3.542969 -2.90625 3.449219 -2.636719 C 3.253906 -2.066406 3.15625 -1.648438 3.15625 -1.390625 C 3.15625 -1.070312 3.371094 -0.839844 3.796875 -0.695312 C 4.050781 -0.613281 4.429688 -0.570312 4.9375 -0.5625 L 4.9375 0 L 0.402344 0 Z "/>
</g>
<g id="glyph-0-12">
<path d="M 5.804688 -7.507812 C 7.128906 -7.53125 8.011719 -7.683594 8.453125 -7.964844 C 9.15625 -8.414062 9.503906 -9.378906 9.503906 -10.863281 C 9.503906 -11.875 9.335938 -12.691406 8.996094 -13.3125 C 8.65625 -13.9375 8.003906 -14.246094 7.042969 -14.246094 C 6.601562 -14.246094 6.285156 -14.195312 6.09375 -14.089844 C 5.902344 -13.984375 5.804688 -13.78125 5.804688 -13.476562 Z M 0.359375 -0.5625 C 1.089844 -0.613281 1.578125 -0.769531 1.828125 -1.027344 C 2.078125 -1.28125 2.203125 -1.804688 2.203125 -2.59375 L 2.203125 -12.414062 C 2.203125 -13.253906 2.074219 -13.78125 1.824219 -14.003906 C 1.570312 -14.222656 1.082031 -14.375 0.359375 -14.453125 L 0.359375 -15.019531 L 7.507812 -15.019531 C 9.402344 -15.019531 10.84375 -14.710938 11.832031 -14.09375 C 12.820312 -13.480469 13.3125 -12.425781 13.3125 -10.925781 C 13.3125 -10.195312 13.121094 -9.511719 12.734375 -8.871094 C 12.347656 -8.230469 11.707031 -7.714844 10.816406 -7.324219 C 10.144531 -7.050781 9.472656 -6.882812 8.800781 -6.824219 C 8.128906 -6.765625 7.128906 -6.738281 5.804688 -6.738281 L 5.804688 -2.59375 C 5.804688 -1.777344 5.941406 -1.242188 6.21875 -0.988281 C 6.492188 -0.734375 7.007812 -0.59375 7.757812 -0.5625 L 7.757812 0 L 0.359375 0 Z "/>
</g>
</g>
<image id="source-10" x="0" y="0" width="0" height="0"/>
<mask id="mask-0">
<use xlink:href="#source-10"/>
</mask>
</defs>
<g fill="rgb(100%, 100%, 100%)" fill-opacity="1">
<use xlink:href="#glyph-0-0" x="30" y="36.666992"/>
<use xlink:href="#glyph-0-1" x="45" y="36.666992"/>
<use xlink:href="#glyph-0-2" x="61" y="36.666992"/>
<use xlink:href="#glyph-0-3" x="77" y="36.666992"/>
<use xlink:href="#glyph-0-4" x="90" y="36.666992"/>
<use xlink:href="#glyph-0-5" x="106" y="36.666992"/>
<use xlink:href="#glyph-0-2" x="111" y="36.666992"/>
<use xlink:href="#glyph-0-6" x="127" y="36.666992"/>
<use xlink:href="#glyph-0-7" x="143" y="36.666992"/>
<use xlink:href="#glyph-0-8" x="152" y="36.666992"/>
<use xlink:href="#glyph-0-9" x="168" y="36.666992"/>
<use xlink:href="#glyph-0-1" x="183" y="36.666992"/>
<use xlink:href="#glyph-0-10" x="199" y="36.666992"/>
<use xlink:href="#glyph-0-11" x="211" y="36.666992"/>
<use xlink:href="#glyph-0-3" x="227" y="36.666992"/>
<use xlink:href="#glyph-0-5" x="240" y="36.666992"/>
<use xlink:href="#glyph-0-7" x="246" y="36.666992"/>
<use xlink:href="#glyph-0-6" x="255" y="36.666992"/>
<use xlink:href="#glyph-0-12" x="271" y="36.666992"/>
<use xlink:href="#glyph-0-2" x="285" y="36.666992"/>
<use xlink:href="#glyph-0-0" x="301" y="36.666992"/>
</g>
</svg>
