<?xml version="1.0" encoding="UTF-8"?>
<svg xmlns="http://www.w3.org/2000/svg" xmlns:xlink="http://www.w3.org/1999/xlink" width="1920" height="1080" viewBox="0 0 1920 1080">
<defs>
<g>
<g id="glyph-0-0">
<path d="M 1.277344 -6.601562 L 1.277344 -7.5 C 2.121094 -7.582031 2.710938 -7.71875 3.046875 -7.914062 C 3.382812 -8.105469 3.628906 -8.5625 3.796875 -9.285156 L 4.71875 -9.285156 L 4.71875 0 L 3.46875 0 L 3.46875 -6.601562 Z "/>
</g>
<g id="glyph-0-1">
<path d="M 1.140625 -1.417969 L 2.5 -1.417969 L 2.5 0 L 1.140625 0 Z "/>
</g>
<g id="glyph-0-2">
<rect x="0" y="0" width="0" height="0" mask="url(#mask-0)"/>
</g>
<g id="glyph-0-3">
<path d="M 2.421875 -9.5625 L 2.421875 -3.652344 C 2.421875 -2.957031 2.550781 -2.378906 2.8125 -1.921875 C 3.199219 -1.226562 3.851562 -0.878906 4.765625 -0.878906 C 5.863281 -0.878906 6.609375 -1.253906 7.003906 -2.003906 C 7.21875 -2.414062 7.324219 -2.960938 7.324219 -3.652344 L 7.324219 -9.5625 L 8.640625 -9.5625 L 8.640625 -4.191406 C 8.640625 -3.015625 8.480469 -2.113281 8.164062 -1.476562 C 7.582031 -0.324219 6.484375 0.253906 4.871094 0.253906 C 3.253906 0.253906 2.160156 -0.324219 1.582031 -1.476562 C 1.265625 -2.109375 1.105469 -3.015625 1.105469 -4.191406 L 1.105469 -9.5625 Z "/>
</g>
<g id="glyph-0-4">
<path d="M 0.859375 -6.972656 L 1.972656 -6.972656 L 1.972656 -5.984375 C 2.300781 -6.390625 2.652344 -6.683594 3.019531 -6.863281 C 3.390625 -7.039062 3.800781 -7.128906 4.25 -7.128906 C 5.242188 -7.128906 5.910156 -6.785156 6.257812 -6.09375 C 6.449219 -5.714844 6.542969 -5.175781 6.542969 -4.472656 L 6.542969 0 L 5.351562 0 L 5.351562 -4.394531 C 5.351562 -4.820312 5.289062 -5.164062 5.164062 -5.421875 C 4.953125 -5.855469 4.578125 -6.074219 4.03125 -6.074219 C 3.753906 -6.074219 3.523438 -6.046875 3.347656 -5.988281 C 3.027344 -5.894531 2.742188 -5.703125 2.5 -5.417969 C 2.304688 -5.1875 2.175781 -4.949219 2.117188 -4.703125 C 2.058594 -4.457031 2.03125 -4.109375 2.03125 -3.652344 L 2.03125 0 L 0.859375 0 Z "/>
</g>
<g id="glyph-0-5">
<path d="M 0.859375 -6.941406 L 2.050781 -6.941406 L 2.050781 0 L 0.859375 0 Z M 0.859375 -9.5625 L 2.050781 -9.5625 L 2.050781 -8.234375 L 0.859375 -8.234375 Z "/>
</g>
<g id="glyph-0-6">
<path d="M 1.152344 -8.035156 C 1.167969 -8.519531 1.253906 -8.875 1.40625 -9.101562 C 1.679688 -9.5 2.207031 -9.699219 2.988281 -9.699219 C 3.0625 -9.699219 3.136719 -9.699219 3.214844 -9.695312 C 3.292969 -9.691406 3.382812 -9.683594 3.484375 -9.675781 L 3.484375 -8.605469 C 3.363281 -8.613281 3.273438 -8.621094 3.21875 -8.621094 C 3.164062 -8.625 3.113281 -8.625 3.066406 -8.625 C 2.710938 -8.625 2.496094 -8.535156 2.429688 -8.347656 C 2.359375 -8.164062 2.324219 -7.695312 2.324219 -6.941406 L 3.484375 -6.941406 L 3.484375 -6.015625 L 2.3125 -6.015625 L 2.3125 0 L 1.152344 0 L 1.152344 -6.015625 L 0.183594 -6.015625 L 0.183594 -6.941406 L 1.152344 -6.941406 Z M 4.609375 -8.234375 L 4.609375 -9.5625 L 5.78125 -9.5625 L 5.78125 -8.234375 Z M 4.609375 -6.941406 L 5.78125 -6.941406 L 5.78125 0 L 4.609375 0 Z "/>
</g>
<g id="glyph-0-7">
<path d="M 3.761719 -7.128906 C 4.257812 -7.128906 4.738281 -7.011719 5.203125 -6.78125 C 5.667969 -6.546875 6.019531 -6.246094 6.261719 -5.878906 C 6.496094 -5.527344 6.652344 -5.117188 6.730469 -4.648438 C 6.800781 -4.328125 6.835938 -3.816406 6.835938 -3.113281 L 1.726562 -3.113281 C 1.746094 -2.40625 1.914062 -1.835938 2.226562 -1.410156 C 2.539062 -0.980469 3.023438 -0.769531 3.679688 -0.769531 C 4.289062 -0.769531 4.777344 -0.96875 5.144531 -1.375 C 5.351562 -1.609375 5.5 -1.878906 5.585938 -2.1875 L 6.738281 -2.1875 C 6.707031 -1.929688 6.605469 -1.644531 6.433594 -1.332031 C 6.261719 -1.015625 6.070312 -0.757812 5.859375 -0.558594 C 5.503906 -0.210938 5.0625 0.0234375 4.539062 0.144531 C 4.257812 0.214844 3.9375 0.246094 3.582031 0.246094 C 2.714844 0.246094 1.976562 -0.0664062 1.375 -0.699219 C 0.769531 -1.332031 0.46875 -2.214844 0.46875 -3.351562 C 0.46875 -4.472656 0.773438 -5.382812 1.378906 -6.082031 C 1.988281 -6.78125 2.78125 -7.128906 3.761719 -7.128906 Z M 5.632812 -4.042969 C 5.585938 -4.550781 5.472656 -4.957031 5.300781 -5.261719 C 4.980469 -5.824219 4.441406 -6.105469 3.691406 -6.105469 C 3.152344 -6.105469 2.703125 -5.914062 2.335938 -5.523438 C 1.972656 -5.136719 1.78125 -4.640625 1.757812 -4.042969 Z "/>
</g>
<g id="glyph-0-8">
<path d="M 1.601562 -3.40625 C 1.601562 -2.660156 1.761719 -2.035156 2.078125 -1.53125 C 2.394531 -1.027344 2.902344 -0.773438 3.601562 -0.773438 C 4.144531 -0.773438 4.589844 -1.007812 4.9375 -1.472656 C 5.289062 -1.941406 5.460938 -2.609375 5.460938 -3.484375 C 5.460938 -4.363281 5.28125 -5.015625 4.921875 -5.4375 C 4.5625 -5.863281 4.117188 -6.074219 3.585938 -6.074219 C 2.996094 -6.074219 2.519531 -5.847656 2.152344 -5.398438 C 1.785156 -4.945312 1.601562 -4.28125 1.601562 -3.40625 Z M 3.367188 -7.097656 C 3.898438 -7.097656 4.347656 -6.984375 4.707031 -6.757812 C 4.914062 -6.628906 5.152344 -6.398438 5.417969 -6.074219 L 5.417969 -9.597656 L 6.542969 -9.597656 L 6.542969 0 L 5.488281 0 L 5.488281 -0.96875 C 5.214844 -0.539062 4.890625 -0.230469 4.519531 -0.0390625 C 4.144531 0.152344 3.71875 0.246094 3.234375 0.246094 C 2.457031 0.246094 1.785156 -0.078125 1.21875 -0.730469 C 0.648438 -1.386719 0.363281 -2.253906 0.363281 -3.339844 C 0.363281 -4.355469 0.625 -5.234375 1.140625 -5.980469 C 1.660156 -6.722656 2.402344 -7.097656 3.367188 -7.097656 Z "/>
</g>
<g id="glyph-0-9">
<path d="M 1.140625 -9.5625 L 8.113281 -9.5625 L 8.113281 -8.390625 L 2.402344 -8.390625 L 2.402344 -5.488281 L 7.683594 -5.488281 L 7.683594 -4.382812 L 2.402344 -4.382812 L 2.402344 -1.140625 L 8.210938 -1.140625 L 8.210938 0 L 1.140625 0 Z "/>
</g>
<g id="glyph-0-10">
<path d="M 1.152344 -8.035156 C 1.167969 -8.519531 1.253906 -8.875 1.40625 -9.101562 C 1.679688 -9.5 2.207031 -9.699219 2.988281 -9.699219 C 3.0625 -9.699219 3.136719 -9.699219 3.214844 -9.695312 C 3.292969 -9.691406 3.382812 -9.683594 3.484375 -9.675781 L 3.484375 -8.605469 C 3.363281 -8.613281 3.273438 -8.621094 3.21875 -8.621094 C 3.164062 -8.625 3.113281 -8.625 3.066406 -8.625 C 2.710938 -8.625 2.496094 -8.535156 2.429688 -8.347656 C 2.359375 -8.164062 2.324219 -7.695312 2.324219 -6.941406 L 3.484375 -6.941406 L 3.484375 -6.015625 L 2.3125 -6.015625 L 2.3125 0 L 1.152344 0 L 1.152344 -6.015625 L 0.183594 -6.015625 L 0.183594 -6.941406 L 1.152344 -6.941406 Z "/>
</g>
<g id="glyph-0-11">
<path d="M 3.546875 -7.175781 C 4.332031 -7.175781 4.972656 -6.984375 5.464844 -6.601562 C 5.957031 -6.21875 6.253906 -5.5625 6.355469 -4.628906 L 5.214844 -4.628906 C 5.144531 -5.058594 4.988281 -5.414062 4.738281 -5.699219 C 4.492188 -5.984375 4.09375 -6.125 3.546875 -6.125 C 2.800781 -6.125 2.269531 -5.761719 1.945312 -5.03125 C 1.738281 -4.558594 1.632812 -3.976562 1.632812 -3.28125 C 1.632812 -2.582031 1.78125 -1.996094 2.078125 -1.515625 C 2.371094 -1.039062 2.835938 -0.800781 3.46875 -0.800781 C 3.957031 -0.800781 4.339844 -0.949219 4.625 -1.246094 C 4.910156 -1.542969 5.105469 -1.949219 5.214844 -2.46875 L 6.355469 -2.46875 C 6.222656 -1.542969 5.898438 -0.867188 5.378906 -0.4375 C 4.855469 -0.0117188 4.191406 0.203125 3.378906 0.203125 C 2.46875 0.203125 1.742188 -0.132812 1.199219 -0.796875 C 0.65625 -1.464844 0.382812 -2.296875 0.382812 -3.292969 C 0.382812 -4.519531 0.679688 -5.472656 1.277344 -6.152344 C 1.871094 -6.832031 2.628906 -7.175781 3.546875 -7.175781 Z "/>
</g>
<g id="glyph-0-12">
<path d="M 5.214844 -6.972656 L 6.511719 -6.972656 C 6.347656 -6.527344 5.980469 -5.503906 5.410156 -3.914062 C 4.984375 -2.714844 4.628906 -1.738281 4.34375 -0.984375 C 3.664062 0.796875 3.1875 1.882812 2.910156 2.273438 C 2.632812 2.664062 2.15625 2.859375 1.476562 2.859375 C 1.3125 2.859375 1.1875 2.851562 1.097656 2.839844 C 1.007812 2.824219 0.898438 2.800781 0.769531 2.765625 L 0.769531 1.699219 C 0.972656 1.753906 1.121094 1.789062 1.210938 1.804688 C 1.300781 1.816406 1.382812 1.824219 1.453125 1.824219 C 1.667969 1.824219 1.828125 1.785156 1.929688 1.714844 C 2.03125 1.644531 2.117188 1.554688 2.1875 1.453125 C 2.210938 1.417969 2.289062 1.238281 2.421875 0.917969 C 2.554688 0.597656 2.652344 0.359375 2.714844 0.203125 L 0.136719 -6.972656 L 1.464844 -6.972656 L 3.332031 -1.296875 Z "/>
</g>
</g>
<image id="source-7" x="0" y="0" width="0" height="0"/>
<mask id="mask-0">
<use xlink:href="#source-7"/>
</mask>
</defs>
<g fill="rgb(87.843137%, 87.843137%, 87.843137%)" fill-opacity="1">
<use xlink:href="#glyph-0-0" x="30" y="30.266602"/>
<use xlink:href="#glyph-0-1" x="37" y="30.266602"/>
<use xlink:href="#glyph-0-2" x="41" y="30.266602"/>
<use xlink:href="#glyph-0-3" x="45" y="30.266602"/>
<use xlink:href="#glyph-0-4" x="55" y="30.266602"/>
<use xlink:href="#glyph-0-5" x="62" y="30.266602"/>
<use xlink:href="#glyph-0-6" x="65" y="30.266602"/>
<use xlink:href="#glyph-0-7" x="72" y="30.266602"/>
<use xlink:href="#glyph-0-8" x="79" y="30.266602"/>
<use xlink:href="#glyph-0-2" x="86" y="30.266602"/>
<use xlink:href="#glyph-0-9" x="90" y="30.266602"/>
<use xlink:href="#glyph-0-10" x="99" y="30.266602"/>
<use xlink:href="#glyph-0-6" x="103" y="30.266602"/>
<use xlink:href="#glyph-0-11" x="110" y="30.266602"/>
<use xlink:href="#glyph-0-5" x="117" y="30.266602"/>
<use xlink:href="#glyph-0-7" x="120" y="30.266602"/>
<use xlink:href="#glyph-0-4" x="127" y="30.266602"/>
<use xlink:href="#glyph-0-11" x="134" y="30.266602"/>
<use xlink:href="#glyph-0-12" x="141" y="30.266602"/>
</g>
</svg>
