<?xml version="1.0" encoding="UTF-8"?>
<svg xmlns="http://www.w3.org/2000/svg" xmlns:xlink="http://www.w3.org/1999/xlink" width="1920" height="1080" viewBox="0 0 1920 1080">
<defs>
<g>
<g id="glyph-0-0">
<path d="M 0.101562 -0.578125 C 0.101562 -0.757812 0.152344 -0.882812 0.25 -0.960938 C 0.351562 -1.035156 0.457031 -1.074219 0.570312 -1.074219 C 0.796875 -1.074219 0.960938 -0.933594 1.070312 -0.65625 C 1.175781 -0.378906 1.289062 -0.238281 1.410156 -0.238281 C 1.539062 -0.238281 1.632812 -0.296875 1.683594 -0.410156 C 1.734375 -0.523438 1.757812 -0.722656 1.757812 -1.007812 L 1.757812 -5.53125 C 1.757812 -5.902344 1.699219 -6.140625 1.578125 -6.246094 C 1.457031 -6.351562 1.207031 -6.410156 0.828125 -6.429688 L 0.828125 -6.617188 L 3.703125 -6.617188 L 3.703125 -6.429688 C 3.3125 -6.40625 3.0625 -6.339844 2.945312 -6.222656 C 2.832031 -6.109375 2.773438 -5.878906 2.773438 -5.53125 L 2.773438 -1.859375 C 2.773438 -1.1875 2.613281 -0.695312 2.289062 -0.371094 C 1.96875 -0.046875 1.570312 0.117188 1.09375 0.117188 C 0.78125 0.117188 0.539062 0.046875 0.363281 -0.0976562 C 0.1875 -0.242188 0.101562 -0.398438 0.101562 -0.578125 Z "/>
</g>
<g id="glyph-0-1">
<path d="M 4.460938 -2.570312 L 3.304688 -5.320312 L 2.164062 -2.570312 Z M 0.148438 0 L 0.148438 -0.179688 C 0.40625 -0.210938 0.597656 -0.308594 0.726562 -0.472656 C 0.855469 -0.640625 1.074219 -1.089844 1.386719 -1.828125 L 3.472656 -6.734375 L 3.667969 -6.734375 L 6.15625 -1.0625 C 6.324219 -0.6875 6.457031 -0.453125 6.554688 -0.363281 C 6.65625 -0.273438 6.820312 -0.214844 7.054688 -0.179688 L 7.054688 0 L 4.511719 0 L 4.511719 -0.179688 C 4.804688 -0.207031 4.992188 -0.238281 5.078125 -0.277344 C 5.164062 -0.3125 5.203125 -0.40625 5.203125 -0.550781 C 5.203125 -0.601562 5.1875 -0.6875 5.15625 -0.8125 C 5.125 -0.933594 5.078125 -1.0625 5.019531 -1.203125 L 4.605469 -2.164062 L 1.988281 -2.164062 C 1.726562 -1.507812 1.570312 -1.109375 1.519531 -0.964844 C 1.46875 -0.820312 1.445312 -0.703125 1.445312 -0.621094 C 1.445312 -0.453125 1.515625 -0.332031 1.648438 -0.269531 C 1.734375 -0.230469 1.894531 -0.199219 2.128906 -0.179688 L 2.128906 0 Z "/>
</g>
<g id="glyph-0-2">
<path d="M 2.820312 -6.617188 L 2.820312 -6.429688 C 2.570312 -6.425781 2.402344 -6.410156 2.308594 -6.382812 C 2.148438 -6.328125 2.070312 -6.222656 2.070312 -6.0625 C 2.070312 -5.984375 2.097656 -5.867188 2.15625 -5.722656 C 2.210938 -5.578125 2.320312 -5.332031 2.476562 -4.984375 L 4.039062 -1.503906 L 5.460938 -5.273438 C 5.523438 -5.4375 5.566406 -5.578125 5.601562 -5.695312 C 5.632812 -5.808594 5.648438 -5.898438 5.648438 -5.972656 C 5.648438 -6.164062 5.566406 -6.292969 5.398438 -6.363281 C 5.300781 -6.402344 5.140625 -6.425781 4.917969 -6.429688 L 4.917969 -6.617188 L 6.960938 -6.617188 L 6.960938 -6.445312 C 6.75 -6.414062 6.59375 -6.359375 6.492188 -6.273438 C 6.339844 -6.148438 6.191406 -5.890625 6.039062 -5.507812 L 3.828125 0.117188 L 3.675781 0.117188 L 1.210938 -5.382812 C 1.003906 -5.847656 0.835938 -6.136719 0.710938 -6.25 C 0.585938 -6.363281 0.402344 -6.429688 0.160156 -6.445312 L 0.160156 -6.617188 Z "/>
</g>
<g id="glyph-0-3">
<rect x="0" y="0" width="0" height="0" mask="url(#mask-0)"/>
</g>
<g id="glyph-0-4">
<path d="M 4.328125 -4.800781 C 4.328125 -5.414062 4.0625 -5.832031 3.535156 -6.058594 C 3.25 -6.183594 2.894531 -6.246094 2.460938 -6.246094 C 2.257812 -6.246094 2.128906 -6.226562 2.082031 -6.183594 C 2.035156 -6.144531 2.011719 -6.054688 2.011719 -5.914062 L 2.011719 -3.304688 C 2.191406 -3.289062 2.308594 -3.28125 2.363281 -3.277344 C 2.417969 -3.273438 2.472656 -3.273438 2.523438 -3.273438 C 2.984375 -3.273438 3.34375 -3.335938 3.609375 -3.46875 C 4.085938 -3.703125 4.328125 -4.148438 4.328125 -4.800781 Z M 0.160156 -0.179688 C 0.542969 -0.214844 0.78125 -0.292969 0.875 -0.40625 C 0.96875 -0.523438 1.015625 -0.789062 1.015625 -1.203125 L 1.015625 -5.53125 C 1.015625 -5.878906 0.960938 -6.109375 0.855469 -6.21875 C 0.75 -6.332031 0.519531 -6.402344 0.160156 -6.429688 L 0.160156 -6.617188 L 2.796875 -6.617188 C 3.644531 -6.617188 4.292969 -6.453125 4.742188 -6.125 C 5.191406 -5.796875 5.414062 -5.359375 5.414062 -4.824219 C 5.414062 -4.144531 5.164062 -3.652344 4.667969 -3.34375 C 4.171875 -3.039062 3.546875 -2.886719 2.796875 -2.886719 C 2.691406 -2.886719 2.554688 -2.886719 2.386719 -2.894531 C 2.21875 -2.898438 2.09375 -2.898438 2.011719 -2.898438 L 2.011719 -1.085938 C 2.011719 -0.707031 2.070312 -0.46875 2.183594 -0.371094 C 2.300781 -0.273438 2.558594 -0.210938 2.960938 -0.179688 L 2.960938 0 L 0.160156 0 Z "/>
</g>
<g id="glyph-0-5">
<path d="M 0.160156 -0.179688 C 0.566406 -0.210938 0.832031 -0.269531 0.953125 -0.363281 C 1.074219 -0.457031 1.132812 -0.695312 1.132812 -1.085938 L 1.132812 -5.53125 C 1.132812 -5.898438 1.074219 -6.136719 0.953125 -6.242188 C 0.832031 -6.347656 0.566406 -6.410156 0.160156 -6.429688 L 0.160156 -6.617188 L 3.121094 -6.617188 L 3.121094 -6.429688 C 2.714844 -6.410156 2.449219 -6.347656 2.328125 -6.242188 C 2.207031 -6.136719 2.148438 -5.898438 2.148438 -5.53125 L 2.148438 -1.085938 C 2.148438 -0.695312 2.207031 -0.457031 2.328125 -0.363281 C 2.449219 -0.269531 2.714844 -0.210938 3.121094 -0.179688 L 3.121094 0 L 0.160156 0 Z "/>
</g>
<g id="glyph-0-6">
<path d="M 0.113281 -0.179688 C 0.507812 -0.222656 0.75 -0.296875 0.847656 -0.398438 C 0.945312 -0.5 0.992188 -0.769531 0.992188 -1.203125 L 0.992188 -5.53125 C 0.992188 -5.886719 0.9375 -6.117188 0.828125 -6.226562 C 0.722656 -6.335938 0.484375 -6.40625 0.113281 -6.429688 L 0.113281 -6.617188 L 5.4375 -6.617188 L 5.472656 -5.179688 L 5.195312 -5.179688 C 5.125 -5.640625 5 -5.929688 4.808594 -6.050781 C 4.621094 -6.171875 4.25 -6.234375 3.691406 -6.234375 L 2.324219 -6.234375 C 2.191406 -6.234375 2.105469 -6.210938 2.066406 -6.167969 C 2.03125 -6.121094 2.011719 -6.03125 2.011719 -5.898438 L 2.011719 -3.667969 L 3.457031 -3.667969 C 3.882812 -3.667969 4.15625 -3.730469 4.273438 -3.859375 C 4.390625 -3.984375 4.484375 -4.242188 4.554688 -4.628906 L 4.789062 -4.628906 L 4.789062 -2.3125 L 4.554688 -2.3125 C 4.480469 -2.703125 4.382812 -2.957031 4.265625 -3.082031 C 4.148438 -3.207031 3.878906 -3.273438 3.457031 -3.273438 L 2.011719 -3.273438 L 2.011719 -1.085938 C 2.011719 -0.71875 2.066406 -0.480469 2.179688 -0.378906 C 2.292969 -0.277344 2.539062 -0.210938 2.914062 -0.179688 L 2.914062 0 L 0.113281 0 Z "/>
</g>
<g id="glyph-0-7">
<path d="M 1.988281 -3.421875 C 2.707031 -3.449219 3.222656 -3.523438 3.53125 -3.648438 C 4.0625 -3.867188 4.328125 -4.277344 4.328125 -4.878906 C 4.328125 -5.457031 4.089844 -5.851562 3.613281 -6.0625 C 3.359375 -6.179688 3.023438 -6.234375 2.601562 -6.234375 C 2.320312 -6.234375 2.144531 -6.214844 2.082031 -6.175781 C 2.019531 -6.132812 1.988281 -6.039062 1.988281 -5.890625 Z M 0.113281 -0.179688 C 0.496094 -0.214844 0.734375 -0.292969 0.828125 -0.40625 C 0.921875 -0.519531 0.972656 -0.785156 0.972656 -1.203125 L 0.972656 -5.53125 C 0.972656 -5.882812 0.917969 -6.113281 0.8125 -6.222656 C 0.707031 -6.332031 0.472656 -6.402344 0.113281 -6.429688 L 0.113281 -6.617188 L 2.882812 -6.617188 C 3.457031 -6.617188 3.9375 -6.542969 4.320312 -6.398438 C 5.050781 -6.121094 5.414062 -5.609375 5.414062 -4.867188 C 5.414062 -4.371094 5.253906 -3.988281 4.929688 -3.71875 C 4.605469 -3.453125 4.164062 -3.277344 3.609375 -3.195312 L 5.667969 -0.660156 C 5.796875 -0.503906 5.921875 -0.390625 6.050781 -0.316406 C 6.175781 -0.246094 6.339844 -0.199219 6.539062 -0.179688 L 6.539062 0 L 4.925781 0 L 2.542969 -3.078125 L 1.988281 -3.050781 L 1.988281 -1.085938 C 1.988281 -0.714844 2.042969 -0.476562 2.15625 -0.378906 C 2.269531 -0.28125 2.511719 -0.214844 2.890625 -0.179688 L 2.890625 0 L 0.113281 0 Z "/>
</g>
<g id="glyph-0-8">
<path d="M 0.113281 -0.179688 C 0.527344 -0.222656 0.789062 -0.316406 0.90625 -0.460938 C 1.023438 -0.605469 1.085938 -0.941406 1.085938 -1.46875 L 1.085938 -5.53125 C 1.085938 -5.894531 1.027344 -6.128906 0.914062 -6.238281 C 0.800781 -6.347656 0.539062 -6.410156 0.136719 -6.429688 L 0.136719 -6.617188 L 2.113281 -6.617188 L 4.429688 -1.570312 L 6.640625 -6.617188 L 8.632812 -6.617188 L 8.632812 -6.429688 C 8.261719 -6.40625 8.023438 -6.335938 7.914062 -6.226562 C 7.808594 -6.117188 7.753906 -5.886719 7.753906 -5.53125 L 7.753906 -1.085938 C 7.753906 -0.71875 7.808594 -0.484375 7.914062 -0.382812 C 8.023438 -0.28125 8.261719 -0.214844 8.632812 -0.179688 L 8.632812 0 L 5.828125 0 L 5.828125 -0.179688 C 6.234375 -0.210938 6.484375 -0.285156 6.585938 -0.398438 C 6.683594 -0.511719 6.734375 -0.777344 6.734375 -1.203125 L 6.734375 -5.695312 L 4.175781 0 L 4.039062 0 L 1.523438 -5.460938 L 1.523438 -1.46875 C 1.523438 -0.921875 1.601562 -0.566406 1.761719 -0.398438 C 1.867188 -0.292969 2.101562 -0.21875 2.460938 -0.179688 L 2.460938 0 L 0.113281 0 Z "/>
</g>
<g id="glyph-0-9">
<path d="M 0.113281 -0.179688 C 0.480469 -0.21875 0.71875 -0.285156 0.828125 -0.378906 C 0.9375 -0.472656 0.992188 -0.707031 0.992188 -1.085938 L 0.992188 -5.53125 C 0.992188 -5.886719 0.9375 -6.117188 0.828125 -6.226562 C 0.722656 -6.335938 0.484375 -6.40625 0.113281 -6.429688 L 0.113281 -6.617188 L 5.425781 -6.617188 L 5.460938 -5.179688 L 5.203125 -5.179688 C 5.121094 -5.625 4.992188 -5.910156 4.824219 -6.039062 C 4.65625 -6.171875 4.277344 -6.234375 3.691406 -6.234375 L 2.335938 -6.234375 C 2.1875 -6.234375 2.097656 -6.210938 2.0625 -6.164062 C 2.027344 -6.117188 2.011719 -6.027344 2.011719 -5.898438 L 2.011719 -3.667969 L 3.550781 -3.667969 C 3.976562 -3.667969 4.25 -3.730469 4.367188 -3.859375 C 4.484375 -3.984375 4.578125 -4.242188 4.648438 -4.628906 L 4.882812 -4.628906 L 4.882812 -2.3125 L 4.648438 -2.3125 C 4.574219 -2.703125 4.476562 -2.957031 4.359375 -3.082031 C 4.242188 -3.207031 3.972656 -3.273438 3.550781 -3.273438 L 2.011719 -3.273438 L 2.011719 -0.796875 C 2.011719 -0.597656 2.074219 -0.480469 2.199219 -0.445312 C 2.324219 -0.410156 2.699219 -0.390625 3.324219 -0.390625 C 4 -0.390625 4.5 -0.464844 4.824219 -0.613281 C 5.148438 -0.761719 5.4375 -1.121094 5.695312 -1.6875 L 5.972656 -1.6875 L 5.515625 0 L 0.113281 0 Z "/>
</g>
<g id="glyph-0-10">
<path d="M 2.496094 -6.617188 L 2.496094 -6.429688 C 2.296875 -6.421875 2.15625 -6.40625 2.070312 -6.375 C 1.921875 -6.320312 1.84375 -6.21875 1.84375 -6.074219 C 1.84375 -6.007812 1.855469 -5.945312 1.871094 -5.882812 C 1.890625 -5.820312 1.917969 -5.742188 1.953125 -5.644531 L 3.398438 -1.882812 L 4.460938 -4.707031 L 3.988281 -5.914062 C 3.902344 -6.132812 3.769531 -6.28125 3.59375 -6.359375 C 3.488281 -6.402344 3.332031 -6.425781 3.121094 -6.429688 L 3.121094 -6.617188 L 5.796875 -6.617188 L 5.796875 -6.429688 C 5.546875 -6.425781 5.371094 -6.410156 5.277344 -6.375 C 5.128906 -6.320312 5.054688 -6.207031 5.054688 -6.035156 C 5.054688 -5.976562 5.058594 -5.925781 5.074219 -5.882812 C 5.085938 -5.835938 5.117188 -5.746094 5.171875 -5.609375 L 6.617188 -1.859375 L 7.867188 -5.253906 C 7.9375 -5.445312 7.988281 -5.617188 8.011719 -5.765625 C 8.027344 -5.851562 8.039062 -5.917969 8.039062 -5.972656 C 8.039062 -6.15625 7.949219 -6.285156 7.773438 -6.359375 C 7.675781 -6.398438 7.53125 -6.425781 7.335938 -6.429688 L 7.335938 -6.617188 L 9.316406 -6.617188 L 9.316406 -6.429688 C 9.136719 -6.40625 9 -6.363281 8.90625 -6.308594 C 8.738281 -6.214844 8.609375 -6.050781 8.523438 -5.820312 L 7.460938 -2.847656 L 7.046875 -1.699219 L 6.445312 0.117188 L 6.292969 0.117188 L 5.890625 -1.039062 L 4.695312 -4.117188 L 3.160156 0.117188 L 3.007812 0.117188 L 2.289062 -1.960938 L 1.429688 -4.300781 C 1.074219 -5.265625 0.828125 -5.855469 0.691406 -6.078125 C 0.554688 -6.296875 0.335938 -6.414062 0.0429688 -6.429688 L 0.0429688 -6.617188 Z "/>
</g>
<g id="glyph-0-11">
<path d="M 1.429688 -3.304688 C 1.429688 -2.253906 1.636719 -1.476562 2.050781 -0.972656 C 2.464844 -0.46875 2.972656 -0.21875 3.574219 -0.21875 C 4.164062 -0.21875 4.667969 -0.464844 5.085938 -0.953125 C 5.503906 -1.445312 5.710938 -2.226562 5.710938 -3.304688 C 5.710938 -4.394531 5.5 -5.183594 5.078125 -5.667969 C 4.65625 -6.152344 4.152344 -6.398438 3.574219 -6.398438 C 2.976562 -6.398438 2.46875 -6.144531 2.054688 -5.640625 C 1.640625 -5.140625 1.429688 -4.359375 1.429688 -3.304688 Z M 0.296875 -3.304688 C 0.296875 -4.375 0.632812 -5.230469 1.304688 -5.875 C 1.917969 -6.464844 2.675781 -6.757812 3.574219 -6.757812 C 4.476562 -6.757812 5.234375 -6.460938 5.851562 -5.867188 C 6.515625 -5.226562 6.851562 -4.375 6.851562 -3.304688 C 6.851562 -2.222656 6.503906 -1.359375 5.816406 -0.71875 C 5.195312 -0.144531 4.449219 0.140625 3.574219 0.140625 C 2.636719 0.140625 1.859375 -0.175781 1.242188 -0.8125 C 0.613281 -1.460938 0.296875 -2.289062 0.296875 -3.304688 Z "/>
</g>
<g id="glyph-0-12">
<path d="M 0.179688 -0.179688 C 0.585938 -0.210938 0.839844 -0.285156 0.9375 -0.398438 C 1.035156 -0.511719 1.085938 -0.777344 1.085938 -1.203125 L 1.085938 -5.53125 C 1.085938 -5.894531 1.03125 -6.128906 0.921875 -6.234375 C 0.8125 -6.339844 0.566406 -6.40625 0.179688 -6.429688 L 0.179688 -6.617188 L 3.03125 -6.617188 L 3.03125 -6.429688 C 2.640625 -6.410156 2.390625 -6.347656 2.273438 -6.234375 C 2.160156 -6.125 2.105469 -5.890625 2.105469 -5.53125 L 2.105469 -3.480469 C 2.71875 -4.003906 3.222656 -4.453125 3.613281 -4.820312 C 4.3125 -5.488281 4.664062 -5.914062 4.664062 -6.101562 C 4.664062 -6.234375 4.605469 -6.324219 4.484375 -6.367188 C 4.367188 -6.410156 4.199219 -6.429688 3.980469 -6.429688 L 3.980469 -6.617188 L 6.597656 -6.617188 L 6.597656 -6.453125 C 6.277344 -6.421875 6.027344 -6.359375 5.84375 -6.265625 C 5.660156 -6.171875 5.402344 -5.964844 5.078125 -5.644531 L 3.179688 -3.785156 L 5.507812 -1.269531 C 5.941406 -0.804688 6.234375 -0.511719 6.390625 -0.398438 C 6.546875 -0.28125 6.777344 -0.207031 7.078125 -0.171875 L 7.078125 0 L 4.023438 0 L 4.023438 -0.179688 C 4.300781 -0.191406 4.488281 -0.210938 4.585938 -0.246094 C 4.683594 -0.28125 4.730469 -0.347656 4.730469 -0.449219 C 4.730469 -0.503906 4.699219 -0.589844 4.636719 -0.703125 C 4.574219 -0.816406 4.472656 -0.949219 4.335938 -1.097656 L 2.441406 -3.179688 L 2.105469 -2.890625 L 2.105469 -1.085938 C 2.105469 -0.714844 2.160156 -0.476562 2.273438 -0.378906 C 2.386719 -0.28125 2.628906 -0.214844 3.007812 -0.179688 L 3.007812 0 L 0.179688 0 Z "/>
</g>
</g>
<image id="source-10" x="0" y="0" width="0" height="0"/>
<mask id="mask-0">
<use xlink:href="#source-10"/>
</mask>
</defs>
<g fill="rgb(100%, 100%, 100%)" fill-opacity="1">
<use xlink:href="#glyph-0-0" x="30" y="27.5"/>
<use xlink:href="#glyph-0-1" x="34" y="27.5"/>
<use xlink:href="#glyph-0-2" x="40" y="27.5"/>
<use xlink:href="#glyph-0-1" x="46" y="27.5"/>
<use xlink:href="#glyph-0-3" x="53" y="27.5"/>
<use xlink:href="#glyph-0-1" x="55" y="27.5"/>
<use xlink:href="#glyph-0-4" x="62" y="27.5"/>
<use xlink:href="#glyph-0-5" x="68" y="27.5"/>
<use xlink:href="#glyph-0-3" x="71" y="27.5"/>
<use xlink:href="#glyph-0-6" x="74" y="27.5"/>
<use xlink:href="#glyph-0-7" x="80" y="27.5"/>
<use xlink:href="#glyph-0-1" x="87" y="27.5"/>
<use xlink:href="#glyph-0-8" x="94" y="27.5"/>
<use xlink:href="#glyph-0-9" x="103" y="27.5"/>
<use xlink:href="#glyph-0-10" x="109" y="27.5"/>
<use xlink:href="#glyph-0-11" x="118" y="27.5"/>
<use xlink:href="#glyph-0-7" x="125" y="27.5"/>
<use xlink:href="#glyph-0-12" x="132" y="27.5"/>
</g>
</svg>
