<?xml version="1.0" encoding="UTF-8"?>
<svg xmlns="http://www.w3.org/2000/svg" xmlns:xlink="http://www.w3.org/1999/xlink" width="1920" height="1080" viewBox="0 0 1920 1080">
<defs>
<g>
<g id="glyph-0-0">
<path d="M 0.675781 -4.035156 L 1.417969 -4.035156 C 1.679688 -2.761719 2.164062 -1.859375 2.878906 -1.335938 C 3.589844 -0.808594 4.320312 -0.546875 5.066406 -0.546875 C 5.75 -0.546875 6.253906 -0.699219 6.574219 -1.007812 C 6.894531 -1.316406 7.058594 -1.722656 7.058594 -2.226562 C 7.058594 -2.703125 6.882812 -3.113281 6.535156 -3.449219 C 6.34375 -3.632812 6.039062 -3.828125 5.613281 -4.035156 L 3.632812 -5 C 2.589844 -5.511719 1.84375 -6.066406 1.394531 -6.667969 C 0.933594 -7.265625 0.703125 -7.972656 0.703125 -8.789062 C 0.703125 -9.820312 1.0625 -10.714844 1.785156 -11.464844 C 2.503906 -12.214844 3.511719 -12.589844 4.804688 -12.589844 C 5.367188 -12.589844 5.96875 -12.496094 6.601562 -12.3125 C 7.234375 -12.125 7.628906 -12.03125 7.785156 -12.03125 C 8.003906 -12.03125 8.15625 -12.078125 8.25 -12.167969 C 8.339844 -12.257812 8.414062 -12.386719 8.476562 -12.550781 L 9.0625 -12.550781 L 9.0625 -8.699219 L 8.386719 -8.699219 C 8.132812 -9.601562 7.722656 -10.324219 7.148438 -10.871094 C 6.574219 -11.417969 5.90625 -11.691406 5.144531 -11.691406 C 4.554688 -11.691406 4.113281 -11.527344 3.820312 -11.199219 C 3.53125 -10.867188 3.386719 -10.511719 3.386719 -10.128906 C 3.386719 -9.816406 3.515625 -9.503906 3.777344 -9.191406 C 4.027344 -8.871094 4.503906 -8.542969 5.207031 -8.203125 L 6.667969 -7.5 C 7.570312 -7.066406 8.230469 -6.644531 8.644531 -6.238281 C 9.339844 -5.542969 9.6875 -4.6875 9.6875 -3.671875 C 9.6875 -2.683594 9.328125 -1.761719 8.613281 -0.90625 C 7.898438 -0.0507812 6.824219 0.378906 5.390625 0.378906 C 5.035156 0.378906 4.675781 0.339844 4.316406 0.265625 C 3.957031 0.191406 3.511719 0.0664062 2.980469 -0.117188 L 2.527344 -0.273438 C 2.363281 -0.335938 2.257812 -0.367188 2.21875 -0.378906 C 2.179688 -0.386719 2.132812 -0.390625 2.070312 -0.390625 C 1.921875 -0.390625 1.792969 -0.332031 1.6875 -0.214844 C 1.578125 -0.0976562 1.453125 0.101562 1.316406 0.378906 L 0.675781 0.378906 Z "/>
</g>
<g id="glyph-0-1">
<path d="M 7.800781 -1.105469 C 8.761719 -1.105469 9.414062 -1.746094 9.753906 -3.019531 C 9.933594 -3.722656 10.027344 -4.734375 10.027344 -6.054688 C 10.027344 -7.582031 9.886719 -8.800781 9.609375 -9.707031 C 9.332031 -10.613281 8.765625 -11.066406 7.917969 -11.066406 C 7.34375 -11.066406 6.832031 -10.816406 6.378906 -10.3125 C 5.929688 -9.808594 5.703125 -9.445312 5.703125 -9.21875 L 5.703125 -2.734375 C 5.703125 -2.472656 5.917969 -2.136719 6.347656 -1.726562 C 6.777344 -1.3125 7.261719 -1.105469 7.800781 -1.105469 Z M 0.480469 4.855469 C 1.054688 4.796875 1.445312 4.664062 1.652344 4.460938 C 1.863281 4.257812 1.964844 3.871094 1.964844 3.308594 L 1.964844 -10.089844 C 1.964844 -10.644531 1.867188 -11.023438 1.671875 -11.21875 C 1.476562 -11.414062 1.101562 -11.550781 0.546875 -11.628906 L 0.546875 -12.277344 L 5.636719 -12.277344 L 5.636719 -10.519531 C 6.003906 -11.128906 6.359375 -11.574219 6.707031 -11.863281 C 7.332031 -12.367188 8.128906 -12.617188 9.101562 -12.617188 C 10.5 -12.617188 11.660156 -12.09375 12.585938 -11.042969 C 13.507812 -9.992188 13.972656 -8.425781 13.972656 -6.339844 C 13.972656 -4.40625 13.472656 -2.800781 12.480469 -1.53125 C 11.488281 -0.257812 10.277344 0.378906 8.855469 0.378906 C 8.125 0.378906 7.433594 0.164062 6.785156 -0.261719 C 6.4375 -0.488281 6.078125 -0.808594 5.703125 -1.222656 L 5.703125 1.027344 C 5.710938 2.226562 5.71875 2.898438 5.730469 3.046875 C 5.789062 3.75 5.96875 4.230469 6.269531 4.492188 C 6.570312 4.753906 7.070312 4.90625 7.773438 4.949219 L 7.773438 5.496094 L 0.480469 5.496094 Z "/>
</g>
<g id="glyph-0-2">
<path d="M 5.847656 -1.523438 C 6.28125 -1.523438 6.683594 -1.652344 7.058594 -1.914062 C 7.265625 -2.070312 7.511719 -2.3125 7.800781 -2.644531 L 7.800781 -6.535156 C 7.089844 -6.363281 6.460938 -6.089844 5.925781 -5.714844 C 5.011719 -5.082031 4.558594 -4.273438 4.558594 -3.292969 C 4.558594 -2.710938 4.691406 -2.273438 4.953125 -1.972656 C 5.21875 -1.671875 5.515625 -1.523438 5.847656 -1.523438 Z M 0.675781 -2.488281 C 0.675781 -3.683594 1.253906 -4.636719 2.410156 -5.339844 C 3.5625 -6.042969 5.375 -6.75 7.839844 -7.460938 L 7.839844 -9.402344 C 7.839844 -10.191406 7.671875 -10.773438 7.335938 -11.152344 C 7.003906 -11.53125 6.410156 -11.71875 5.558594 -11.71875 C 5.082031 -11.71875 4.691406 -11.628906 4.382812 -11.453125 C 4.074219 -11.273438 3.917969 -11.050781 3.917969 -10.78125 C 3.917969 -10.675781 3.9375 -10.589844 3.972656 -10.519531 C 4.007812 -10.449219 4.058594 -10.378906 4.128906 -10.300781 L 4.285156 -10.117188 C 4.40625 -9.96875 4.503906 -9.808594 4.578125 -9.628906 C 4.652344 -9.449219 4.6875 -9.261719 4.6875 -9.0625 C 4.6875 -8.558594 4.519531 -8.171875 4.1875 -7.898438 C 3.851562 -7.625 3.464844 -7.488281 3.019531 -7.488281 C 2.507812 -7.488281 2.074219 -7.640625 1.710938 -7.941406 C 1.351562 -8.246094 1.171875 -8.683594 1.171875 -9.257812 C 1.171875 -10.28125 1.652344 -11.09375 2.617188 -11.691406 C 3.582031 -12.292969 4.765625 -12.589844 6.171875 -12.589844 C 7.683594 -12.589844 8.945312 -12.300781 9.960938 -11.71875 C 10.96875 -11.128906 11.472656 -10.042969 11.472656 -8.464844 L 11.472656 -2.003906 C 11.472656 -1.8125 11.519531 -1.652344 11.621094 -1.515625 C 11.722656 -1.382812 11.832031 -1.316406 11.953125 -1.316406 C 12.058594 -1.316406 12.152344 -1.335938 12.234375 -1.375 C 12.316406 -1.414062 12.445312 -1.519531 12.617188 -1.691406 L 13.019531 -1.132812 C 12.5 -0.523438 11.921875 -0.101562 11.289062 0.144531 C 10.890625 0.300781 10.46875 0.378906 10.027344 0.378906 C 9.238281 0.378906 8.660156 0.148438 8.292969 -0.3125 C 8.085938 -0.574219 7.933594 -0.960938 7.839844 -1.472656 C 7.101562 -0.734375 6.265625 -0.210938 5.339844 0.0898438 C 4.773438 0.28125 4.21875 0.378906 3.671875 0.378906 C 2.941406 0.378906 2.261719 0.144531 1.628906 -0.320312 C 0.996094 -0.785156 0.675781 -1.507812 0.675781 -2.488281 Z "/>
</g>
<g id="glyph-0-3">
<path d="M 0.480469 -0.636719 C 0.992188 -0.699219 1.351562 -0.820312 1.550781 -1.003906 C 1.75 -1.183594 1.859375 -1.535156 1.875 -2.058594 L 1.902344 -2.839844 L 1.902344 -10.089844 C 1.902344 -10.644531 1.804688 -11.023438 1.613281 -11.222656 C 1.421875 -11.421875 1.046875 -11.558594 0.480469 -11.628906 L 0.480469 -12.277344 L 5.546875 -12.277344 L 5.546875 -10.183594 C 6.109375 -10.921875 6.671875 -11.507812 7.226562 -11.941406 C 7.78125 -12.375 8.425781 -12.589844 9.152344 -12.589844 C 9.699219 -12.589844 10.191406 -12.414062 10.632812 -12.0625 C 11.070312 -11.710938 11.289062 -11.199219 11.289062 -10.519531 C 11.289062 -10 11.136719 -9.570312 10.828125 -9.230469 C 10.519531 -8.894531 10.117188 -8.722656 9.621094 -8.722656 C 9.058594 -8.722656 8.570312 -8.988281 8.15625 -9.519531 C 7.746094 -10.046875 7.457031 -10.3125 7.292969 -10.3125 C 6.9375 -10.3125 6.578125 -10.09375 6.21875 -9.65625 C 5.859375 -9.21875 5.675781 -8.589844 5.675781 -7.773438 L 5.675781 -2.734375 C 5.675781 -1.847656 5.804688 -1.296875 6.0625 -1.074219 C 6.316406 -0.851562 6.828125 -0.707031 7.589844 -0.636719 L 7.589844 0 L 0.480469 0 Z "/>
</g>
<g id="glyph-0-4">
<path d="M 0.597656 -6.121094 C 0.597656 -8.167969 1.144531 -9.757812 2.234375 -10.890625 C 3.324219 -12.023438 4.636719 -12.589844 6.171875 -12.589844 C 7.046875 -12.589844 7.875 -12.359375 8.644531 -11.902344 C 9.417969 -11.441406 10.011719 -10.804688 10.429688 -9.988281 C 10.742188 -9.371094 10.960938 -8.570312 11.082031 -7.589844 C 11.140625 -7.128906 11.171875 -6.78125 11.171875 -6.535156 L 4.375 -6.535156 C 4.4375 -5.46875 4.609375 -4.542969 4.894531 -3.761719 C 5.417969 -2.296875 6.332031 -1.5625 7.644531 -1.5625 C 8.269531 -1.5625 8.859375 -1.757812 9.414062 -2.148438 C 9.753906 -2.382812 10.171875 -2.777344 10.675781 -3.332031 L 11.289062 -2.957031 C 10.464844 -1.601562 9.507812 -0.660156 8.425781 -0.128906 C 7.722656 0.207031 6.914062 0.378906 6.003906 0.378906 C 4.691406 0.378906 3.464844 -0.140625 2.316406 -1.171875 C 1.171875 -2.203125 0.597656 -3.855469 0.597656 -6.121094 Z M 7.890625 -7.527344 C 7.875 -9.097656 7.75 -10.195312 7.527344 -10.820312 C 7.300781 -11.445312 6.847656 -11.757812 6.171875 -11.757812 C 5.476562 -11.757812 5.003906 -11.398438 4.746094 -10.675781 C 4.488281 -9.957031 4.34375 -8.90625 4.308594 -7.527344 Z "/>
</g>
</g>
</defs>
<g fill="rgb(100%, 100%, 100%)" fill-opacity="1">
<use xlink:href="#glyph-0-0" x="30" y="40"/>
<use xlink:href="#glyph-0-1" x="40" y="40"/>
<use xlink:href="#glyph-0-2" x="55" y="40"/>
<use xlink:href="#glyph-0-3" x="68" y="40"/>
<use xlink:href="#glyph-0-0" x="80" y="40"/>
<use xlink:href="#glyph-0-4" x="90" y="40"/>
</g>
</svg>
