<?xml version="1.0" encoding="UTF-8"?>
<svg xmlns="http://www.w3.org/2000/svg" xmlns:xlink="http://www.w3.org/1999/xlink" width="1920" height="1080" viewBox="0 0 1920 1080">
<defs>
<g>
<g id="glyph-0-0">
<path d="M 6.964844 -9.011719 C 8.554688 -9.035156 9.613281 -9.21875 10.144531 -9.558594 C 10.984375 -10.097656 11.40625 -11.253906 11.40625 -13.035156 C 11.40625 -14.25 11.203125 -15.230469 10.792969 -15.976562 C 10.386719 -16.722656 9.605469 -17.097656 8.449219 -17.097656 C 7.921875 -17.097656 7.542969 -17.035156 7.3125 -16.90625 C 7.082031 -16.78125 6.964844 -16.535156 6.964844 -16.171875 Z M 0.429688 -0.675781 C 1.304688 -0.738281 1.894531 -0.921875 2.195312 -1.230469 C 2.492188 -1.539062 2.644531 -2.164062 2.644531 -3.113281 L 2.644531 -14.894531 C 2.644531 -15.902344 2.492188 -16.539062 2.1875 -16.804688 C 1.882812 -17.070312 1.296875 -17.25 0.429688 -17.34375 L 0.429688 -18.019531 L 9.011719 -18.019531 C 11.285156 -18.019531 13.015625 -17.652344 14.199219 -16.914062 C 15.382812 -16.175781 15.976562 -14.910156 15.976562 -13.113281 C 15.976562 -12.234375 15.746094 -11.414062 15.28125 -10.644531 C 14.816406 -9.875 14.050781 -9.257812 12.980469 -8.789062 C 12.175781 -8.460938 11.367188 -8.257812 10.558594 -8.191406 C 9.753906 -8.121094 8.554688 -8.085938 6.964844 -8.085938 L 6.964844 -3.113281 C 6.964844 -2.132812 7.132812 -1.488281 7.460938 -1.183594 C 7.789062 -0.878906 8.40625 -0.710938 9.308594 -0.675781 L 9.308594 0 L 0.429688 0 Z "/>
</g>
<g id="glyph-0-1">
<path d="M 0.597656 -6.121094 C 0.597656 -8.167969 1.144531 -9.757812 2.234375 -10.890625 C 3.324219 -12.023438 4.636719 -12.589844 6.171875 -12.589844 C 7.046875 -12.589844 7.875 -12.359375 8.644531 -11.902344 C 9.417969 -11.441406 10.011719 -10.804688 10.429688 -9.988281 C 10.742188 -9.371094 10.960938 -8.570312 11.082031 -7.589844 C 11.140625 -7.128906 11.171875 -6.78125 11.171875 -6.535156 L 4.375 -6.535156 C 4.4375 -5.46875 4.609375 -4.542969 4.894531 -3.761719 C 5.417969 -2.296875 6.332031 -1.5625 7.644531 -1.5625 C 8.269531 -1.5625 8.859375 -1.757812 9.414062 -2.148438 C 9.753906 -2.382812 10.171875 -2.777344 10.675781 -3.332031 L 11.289062 -2.957031 C 10.464844 -1.601562 9.507812 -0.660156 8.425781 -0.128906 C 7.722656 0.207031 6.914062 0.378906 6.003906 0.378906 C 4.691406 0.378906 3.464844 -0.140625 2.316406 -1.171875 C 1.171875 -2.203125 0.597656 -3.855469 0.597656 -6.121094 Z M 7.890625 -7.527344 C 7.875 -9.097656 7.75 -10.195312 7.527344 -10.820312 C 7.300781 -11.445312 6.847656 -11.757812 6.171875 -11.757812 C 5.476562 -11.757812 5.003906 -11.398438 4.746094 -10.675781 C 4.488281 -9.957031 4.34375 -8.90625 4.308594 -7.527344 Z "/>
</g>
<g id="glyph-0-2">
<path d="M 0.429688 -11.105469 L 0.429688 -11.847656 C 0.664062 -12.066406 0.953125 -12.320312 1.300781 -12.617188 C 1.761719 -13.042969 2.195312 -13.480469 2.605469 -13.933594 C 3.410156 -14.816406 4.144531 -15.769531 4.804688 -16.785156 L 5.480469 -16.785156 L 5.480469 -12.277344 L 8.019531 -12.277344 L 8.019531 -11.105469 L 5.480469 -11.105469 L 5.480469 -3.085938 C 5.480469 -2.710938 5.539062 -2.398438 5.652344 -2.148438 C 5.824219 -1.757812 6.109375 -1.5625 6.511719 -1.5625 C 6.859375 -1.5625 7.148438 -1.6875 7.382812 -1.933594 C 7.617188 -2.179688 7.851562 -2.523438 8.085938 -2.957031 L 8.722656 -2.644531 C 8.410156 -1.914062 8.039062 -1.320312 7.605469 -0.859375 C 6.839844 -0.0507812 5.90625 0.351562 4.804688 0.351562 C 4.179688 0.351562 3.632812 0.234375 3.164062 0 C 2.261719 -0.453125 1.808594 -1.273438 1.808594 -2.460938 L 1.808594 -11.105469 Z "/>
</g>
<g id="glyph-0-3">
<path d="M 5.847656 -1.523438 C 6.28125 -1.523438 6.683594 -1.652344 7.058594 -1.914062 C 7.265625 -2.070312 7.511719 -2.3125 7.800781 -2.644531 L 7.800781 -6.535156 C 7.089844 -6.363281 6.460938 -6.089844 5.925781 -5.714844 C 5.011719 -5.082031 4.558594 -4.273438 4.558594 -3.292969 C 4.558594 -2.710938 4.691406 -2.273438 4.953125 -1.972656 C 5.21875 -1.671875 5.515625 -1.523438 5.847656 -1.523438 Z M 0.675781 -2.488281 C 0.675781 -3.683594 1.253906 -4.636719 2.410156 -5.339844 C 3.5625 -6.042969 5.375 -6.75 7.839844 -7.460938 L 7.839844 -9.402344 C 7.839844 -10.191406 7.671875 -10.773438 7.335938 -11.152344 C 7.003906 -11.53125 6.410156 -11.71875 5.558594 -11.71875 C 5.082031 -11.71875 4.691406 -11.628906 4.382812 -11.453125 C 4.074219 -11.273438 3.917969 -11.050781 3.917969 -10.78125 C 3.917969 -10.675781 3.9375 -10.589844 3.972656 -10.519531 C 4.007812 -10.449219 4.058594 -10.378906 4.128906 -10.300781 L 4.285156 -10.117188 C 4.40625 -9.96875 4.503906 -9.808594 4.578125 -9.628906 C 4.652344 -9.449219 4.6875 -9.261719 4.6875 -9.0625 C 4.6875 -8.558594 4.519531 -8.171875 4.1875 -7.898438 C 3.851562 -7.625 3.464844 -7.488281 3.019531 -7.488281 C 2.507812 -7.488281 2.074219 -7.640625 1.710938 -7.941406 C 1.351562 -8.246094 1.171875 -8.683594 1.171875 -9.257812 C 1.171875 -10.28125 1.652344 -11.09375 2.617188 -11.691406 C 3.582031 -12.292969 4.765625 -12.589844 6.171875 -12.589844 C 7.683594 -12.589844 8.945312 -12.300781 9.960938 -11.71875 C 10.96875 -11.128906 11.472656 -10.042969 11.472656 -8.464844 L 11.472656 -2.003906 C 11.472656 -1.8125 11.519531 -1.652344 11.621094 -1.515625 C 11.722656 -1.382812 11.832031 -1.316406 11.953125 -1.316406 C 12.058594 -1.316406 12.152344 -1.335938 12.234375 -1.375 C 12.316406 -1.414062 12.445312 -1.519531 12.617188 -1.691406 L 13.019531 -1.132812 C 12.5 -0.523438 11.921875 -0.101562 11.289062 0.144531 C 10.890625 0.300781 10.46875 0.378906 10.027344 0.378906 C 9.238281 0.378906 8.660156 0.148438 8.292969 -0.3125 C 8.085938 -0.574219 7.933594 -0.960938 7.839844 -1.472656 C 7.101562 -0.734375 6.265625 -0.210938 5.339844 0.0898438 C 4.773438 0.28125 4.21875 0.378906 3.671875 0.378906 C 2.941406 0.378906 2.261719 0.144531 1.628906 -0.320312 C 0.996094 -0.785156 0.675781 -1.507812 0.675781 -2.488281 Z "/>
</g>
<g id="glyph-0-4">
<path d="M 5.613281 -2.589844 C 5.648438 -2.105469 5.742188 -1.707031 5.898438 -1.394531 C 6.210938 -0.785156 6.730469 -0.480469 7.460938 -0.480469 C 8.371094 -0.480469 9.015625 -0.964844 9.394531 -1.925781 C 9.773438 -2.890625 9.960938 -4.253906 9.960938 -6.015625 C 9.960938 -7.414062 9.792969 -8.617188 9.460938 -9.621094 C 9.125 -10.628906 8.472656 -11.132812 7.5 -11.132812 C 6.925781 -11.132812 6.46875 -10.921875 6.125 -10.5 C 5.78125 -10.078125 5.613281 -9.777344 5.613281 -9.597656 Z M 5.613281 -18.019531 L 5.613281 -11.105469 C 6.027344 -11.515625 6.414062 -11.824219 6.769531 -12.03125 C 7.421875 -12.40625 8.125 -12.589844 8.878906 -12.589844 C 10.382812 -12.589844 11.589844 -12.003906 12.507812 -10.832031 C 13.421875 -9.660156 13.878906 -8.21875 13.878906 -6.511719 C 13.878906 -4.304688 13.296875 -2.605469 12.128906 -1.414062 C 10.960938 -0.21875 9.507812 0.378906 7.773438 0.378906 C 7.0625 0.378906 6.433594 0.238281 5.886719 -0.0390625 C 5.339844 -0.316406 4.828125 -0.679688 4.347656 -1.132812 L 2.253906 0.378906 L 1.875 0.378906 L 1.875 -15.832031 C 1.875 -16.386719 1.773438 -16.765625 1.574219 -16.960938 C 1.375 -17.15625 1.003906 -17.292969 0.457031 -17.371094 L 0.457031 -18.019531 Z "/>
</g>
<g id="glyph-0-5">
<path d="M 0.429688 3.4375 C 0.429688 2.828125 0.605469 2.382812 0.957031 2.097656 C 1.308594 1.808594 1.726562 1.667969 2.214844 1.667969 C 2.640625 1.667969 2.988281 1.792969 3.261719 2.042969 C 3.535156 2.296875 3.671875 2.59375 3.671875 2.941406 L 3.605469 3.527344 C 3.605469 3.640625 3.648438 3.746094 3.738281 3.839844 C 3.824219 3.9375 3.933594 3.984375 4.0625 3.984375 C 4.496094 3.984375 4.898438 3.632812 5.273438 2.929688 C 5.507812 2.496094 5.847656 1.644531 6.289062 0.378906 L 3.085938 -7.527344 C 2.859375 -8.082031 2.640625 -8.601562 2.429688 -9.089844 C 2.214844 -9.574219 1.992188 -10.046875 1.757812 -10.507812 C 1.515625 -10.976562 1.324219 -11.273438 1.183594 -11.394531 C 1.046875 -11.515625 0.792969 -11.59375 0.429688 -11.628906 L 0.429688 -12.277344 L 7.097656 -12.277344 L 7.097656 -11.628906 C 6.679688 -11.621094 6.339844 -11.570312 6.074219 -11.484375 C 5.808594 -11.398438 5.675781 -11.210938 5.675781 -10.925781 C 5.675781 -10.863281 5.691406 -10.78125 5.722656 -10.675781 C 5.753906 -10.574219 5.820312 -10.386719 5.925781 -10.117188 L 8.019531 -4.753906 L 8.230469 -4.753906 L 9.933594 -9.558594 C 10.019531 -9.816406 10.09375 -10.046875 10.148438 -10.242188 C 10.207031 -10.4375 10.234375 -10.609375 10.234375 -10.753906 C 10.234375 -11.128906 10.109375 -11.363281 9.863281 -11.464844 C 9.617188 -11.566406 9.25 -11.617188 8.761719 -11.628906 L 8.761719 -12.277344 L 12.800781 -12.277344 L 12.800781 -11.628906 C 12.453125 -11.601562 12.167969 -11.507812 11.945312 -11.347656 C 11.726562 -11.1875 11.496094 -10.796875 11.261719 -10.183594 L 7.277344 0.441406 C 6.550781 2.402344 5.921875 3.738281 5.398438 4.441406 C 4.871094 5.144531 4.050781 5.496094 2.929688 5.496094 C 2.113281 5.496094 1.492188 5.28125 1.066406 4.851562 C 0.640625 4.421875 0.429688 3.949219 0.429688 3.4375 Z "/>
</g>
<g id="glyph-0-6">
<path d="M 0.675781 -4.035156 L 1.417969 -4.035156 C 1.679688 -2.761719 2.164062 -1.859375 2.878906 -1.335938 C 3.589844 -0.808594 4.320312 -0.546875 5.066406 -0.546875 C 5.75 -0.546875 6.253906 -0.699219 6.574219 -1.007812 C 6.894531 -1.316406 7.058594 -1.722656 7.058594 -2.226562 C 7.058594 -2.703125 6.882812 -3.113281 6.535156 -3.449219 C 6.34375 -3.632812 6.039062 -3.828125 5.613281 -4.035156 L 3.632812 -5 C 2.589844 -5.511719 1.84375 -6.066406 1.394531 -6.667969 C 0.933594 -7.265625 0.703125 -7.972656 0.703125 -8.789062 C 0.703125 -9.820312 1.0625 -10.714844 1.785156 -11.464844 C 2.503906 -12.214844 3.511719 -12.589844 4.804688 -12.589844 C 5.367188 -12.589844 5.96875 -12.496094 6.601562 -12.3125 C 7.234375 -12.125 7.628906 -12.03125 7.785156 -12.03125 C 8.003906 -12.03125 8.15625 -12.078125 8.25 -12.167969 C 8.339844 -12.257812 8.414062 -12.386719 8.476562 -12.550781 L 9.0625 -12.550781 L 9.0625 -8.699219 L 8.386719 -8.699219 C 8.132812 -9.601562 7.722656 -10.324219 7.148438 -10.871094 C 6.574219 -11.417969 5.90625 -11.691406 5.144531 -11.691406 C 4.554688 -11.691406 4.113281 -11.527344 3.820312 -11.199219 C 3.53125 -10.867188 3.386719 -10.511719 3.386719 -10.128906 C 3.386719 -9.816406 3.515625 -9.503906 3.777344 -9.191406 C 4.027344 -8.871094 4.503906 -8.542969 5.207031 -8.203125 L 6.667969 -7.5 C 7.570312 -7.066406 8.230469 -6.644531 8.644531 -6.238281 C 9.339844 -5.542969 9.6875 -4.6875 9.6875 -3.671875 C 9.6875 -2.683594 9.328125 -1.761719 8.613281 -0.90625 C 7.898438 -0.0507812 6.824219 0.378906 5.390625 0.378906 C 5.035156 0.378906 4.675781 0.339844 4.316406 0.265625 C 3.957031 0.191406 3.511719 0.0664062 2.980469 -0.117188 L 2.527344 -0.273438 C 2.363281 -0.335938 2.257812 -0.367188 2.21875 -0.378906 C 2.179688 -0.386719 2.132812 -0.390625 2.070312 -0.390625 C 1.921875 -0.390625 1.792969 -0.332031 1.6875 -0.214844 C 1.578125 -0.0976562 1.453125 0.101562 1.316406 0.378906 L 0.675781 0.378906 Z "/>
</g>
</g>
</defs>
<g fill="rgb(100%, 100%, 100%)" fill-opacity="1">
<use xlink:href="#glyph-0-0" x="30" y="40"/>
<use xlink:href="#glyph-0-1" x="46" y="40"/>
<use xlink:href="#glyph-0-2" x="58" y="40"/>
<use xlink:href="#glyph-0-3" x="67" y="40"/>
<use xlink:href="#glyph-0-4" x="80" y="40"/>
<use xlink:href="#glyph-0-5" x="95" y="40"/>
<use xlink:href="#glyph-0-2" x="108" y="40"/>
<use xlink:href="#glyph-0-1" x="117" y="40"/>
<use xlink:href="#glyph-0-6" x="129" y="40"/>
</g>
</svg>
