<?xml version="1.0" encoding="UTF-8"?>
<svg xmlns="http://www.w3.org/2000/svg" xmlns:xlink="http://www.w3.org/1999/xlink" width="1920" height="1080" viewBox="0 0 1920 1080">
<defs>
<g>
<g id="glyph-0-0">
<path d="M 1.027344 0 L 1.027344 -9.542969 L 4.628906 -9.542969 C 5.261719 -9.542969 5.746094 -9.511719 6.082031 -9.453125 C 6.550781 -9.375 6.941406 -9.226562 7.257812 -9.007812 C 7.574219 -8.789062 7.832031 -8.480469 8.023438 -8.085938 C 8.21875 -7.691406 8.3125 -7.257812 8.3125 -6.785156 C 8.3125 -5.972656 8.054688 -5.285156 7.539062 -4.722656 C 7.023438 -4.160156 6.089844 -3.878906 4.738281 -3.878906 L 2.292969 -3.878906 L 2.292969 0 Z M 2.292969 -5.007812 L 4.757812 -5.007812 C 5.574219 -5.007812 6.15625 -5.160156 6.496094 -5.460938 C 6.839844 -5.765625 7.011719 -6.195312 7.011719 -6.746094 C 7.011719 -7.144531 6.910156 -7.484375 6.707031 -7.769531 C 6.507812 -8.054688 6.242188 -8.242188 5.910156 -8.332031 C 5.699219 -8.390625 5.304688 -8.417969 4.734375 -8.417969 L 2.292969 -8.417969 Z "/>
</g>
<g id="glyph-0-1">
<rect x="0" y="0" width="0" height="0" mask="url(#mask-0)"/>
</g>
<g id="glyph-0-2">
<path d="M 7.042969 -5.613281 L 0.742188 -5.613281 L 0.742188 -6.707031 L 7.042969 -6.707031 Z M 7.042969 -2.714844 L 0.742188 -2.714844 L 0.742188 -3.808594 L 7.042969 -3.808594 Z "/>
</g>
<g id="glyph-0-3">
<path d="M 0.554688 -4.707031 C 0.554688 -5.835938 0.667969 -6.742188 0.902344 -7.429688 C 1.132812 -8.117188 1.480469 -8.648438 1.9375 -9.023438 C 2.394531 -9.398438 2.972656 -9.582031 3.664062 -9.582031 C 4.175781 -9.582031 4.625 -9.480469 5.011719 -9.273438 C 5.398438 -9.066406 5.71875 -8.769531 5.96875 -8.382812 C 6.222656 -7.992188 6.417969 -7.519531 6.5625 -6.960938 C 6.707031 -6.40625 6.777344 -5.652344 6.777344 -4.707031 C 6.777344 -3.585938 6.664062 -2.683594 6.433594 -1.996094 C 6.203125 -1.308594 5.859375 -0.777344 5.398438 -0.398438 C 4.941406 -0.0234375 4.363281 0.164062 3.664062 0.164062 C 2.746094 0.164062 2.023438 -0.167969 1.496094 -0.828125 C 0.867188 -1.621094 0.554688 -2.914062 0.554688 -4.707031 Z M 1.757812 -4.707031 C 1.757812 -3.140625 1.941406 -2.097656 2.308594 -1.578125 C 2.675781 -1.058594 3.128906 -0.800781 3.664062 -0.800781 C 4.203125 -0.800781 4.65625 -1.0625 5.023438 -1.582031 C 5.390625 -2.101562 5.574219 -3.144531 5.574219 -4.707031 C 5.574219 -6.277344 5.390625 -7.320312 5.023438 -7.839844 C 4.65625 -8.355469 4.199219 -8.613281 3.652344 -8.613281 C 3.113281 -8.613281 2.683594 -8.386719 2.363281 -7.929688 C 1.960938 -7.347656 1.757812 -6.273438 1.757812 -4.707031 Z "/>
</g>
<g id="glyph-0-4">
<path d="M 1.210938 0 L 1.210938 -1.335938 L 2.546875 -1.335938 L 2.546875 0 Z "/>
</g>
<g id="glyph-0-5">
<path d="M 4.96875 0 L 3.796875 0 L 3.796875 -7.46875 C 3.515625 -7.199219 3.144531 -6.929688 2.683594 -6.660156 C 2.226562 -6.390625 1.816406 -6.1875 1.453125 -6.054688 L 1.453125 -7.1875 C 2.109375 -7.496094 2.679688 -7.867188 3.171875 -8.308594 C 3.660156 -8.746094 4.007812 -9.171875 4.210938 -9.582031 L 4.96875 -9.582031 Z "/>
</g>
</g>
<image id="source-44" x="0" y="0" width="0" height="0"/>
<mask id="mask-0">
<use xlink:href="#source-44"/>
</mask>
</defs>
<g fill="rgb(100%, 100%, 100%)" fill-opacity="1">
<use xlink:href="#glyph-0-0" x="30" y="32.070312"/>
<use xlink:href="#glyph-0-1" x="39" y="32.070312"/>
<use xlink:href="#glyph-0-2" x="43" y="32.070312"/>
<use xlink:href="#glyph-0-1" x="51" y="32.070312"/>
<use xlink:href="#glyph-0-3" x="55" y="32.070312"/>
<use xlink:href="#glyph-0-4" x="62" y="32.070312"/>
<use xlink:href="#glyph-0-5" x="66" y="32.070312"/>
</g>
</svg>
