<?xml version="1.0" encoding="UTF-8"?>
<svg xmlns="http://www.w3.org/2000/svg" xmlns:xlink="http://www.w3.org/1999/xlink" width="1920" height="1080" viewBox="0 0 1920 1080">
<defs>
<g>
<g id="glyph-0-0">
<path d="M 0.351562 -9.011719 L 8.378906 -9.011719 L 8.390625 -6.320312 L 8.007812 -6.320312 C 7.882812 -7.28125 7.523438 -7.929688 6.925781 -8.269531 C 6.59375 -8.457031 6.09375 -8.558594 5.429688 -8.574219 L 5.429688 -1.554688 C 5.429688 -1.066406 5.515625 -0.738281 5.6875 -0.578125 C 5.859375 -0.417969 6.214844 -0.339844 6.757812 -0.339844 L 6.757812 0 L 2.003906 0 L 2.003906 -0.339844 C 2.527344 -0.339844 2.871094 -0.417969 3.042969 -0.582031 C 3.214844 -0.746094 3.300781 -1.070312 3.300781 -1.554688 L 3.300781 -8.574219 C 2.648438 -8.558594 2.152344 -8.453125 1.804688 -8.269531 C 1.164062 -7.921875 0.804688 -7.273438 0.722656 -6.320312 L 0.339844 -6.320312 Z "/>
</g>
<g id="glyph-0-1">
<path d="M 0.242188 -0.320312 C 0.496094 -0.351562 0.675781 -0.410156 0.773438 -0.5 C 0.875 -0.59375 0.929688 -0.769531 0.9375 -1.027344 L 0.949219 -1.417969 L 0.949219 -5.046875 C 0.949219 -5.324219 0.902344 -5.511719 0.808594 -5.613281 C 0.710938 -5.710938 0.523438 -5.777344 0.242188 -5.8125 L 0.242188 -6.140625 L 2.773438 -6.140625 L 2.773438 -5.089844 C 3.054688 -5.460938 3.335938 -5.753906 3.613281 -5.96875 C 3.890625 -6.1875 4.210938 -6.296875 4.578125 -6.296875 C 4.851562 -6.296875 5.097656 -6.207031 5.316406 -6.03125 C 5.535156 -5.855469 5.644531 -5.597656 5.644531 -5.261719 C 5.644531 -5 5.566406 -4.785156 5.414062 -4.617188 C 5.257812 -4.445312 5.058594 -4.363281 4.8125 -4.363281 C 4.53125 -4.363281 4.285156 -4.496094 4.078125 -4.757812 C 3.871094 -5.023438 3.726562 -5.15625 3.644531 -5.15625 C 3.46875 -5.15625 3.289062 -5.046875 3.109375 -4.828125 C 2.929688 -4.609375 2.839844 -4.292969 2.839844 -3.886719 L 2.839844 -1.367188 C 2.839844 -0.925781 2.902344 -0.648438 3.03125 -0.535156 C 3.160156 -0.425781 3.414062 -0.355469 3.796875 -0.320312 L 3.796875 0 L 0.242188 0 Z "/>
</g>
<g id="glyph-0-2">
<path d="M 0.800781 -8.175781 C 0.800781 -8.464844 0.902344 -8.707031 1.101562 -8.910156 C 1.304688 -9.113281 1.550781 -9.210938 1.835938 -9.210938 C 2.117188 -9.210938 2.359375 -9.109375 2.5625 -8.910156 C 2.765625 -8.707031 2.863281 -8.464844 2.863281 -8.175781 C 2.863281 -7.890625 2.761719 -7.644531 2.5625 -7.445312 C 2.359375 -7.242188 2.117188 -7.140625 1.835938 -7.140625 C 1.550781 -7.140625 1.304688 -7.242188 1.101562 -7.445312 C 0.902344 -7.648438 0.800781 -7.890625 0.800781 -8.175781 Z M 0.214844 -0.320312 C 0.449219 -0.359375 0.609375 -0.417969 0.695312 -0.496094 C 0.828125 -0.613281 0.890625 -0.824219 0.890625 -1.125 L 0.890625 -5.046875 C 0.890625 -5.316406 0.847656 -5.496094 0.753906 -5.59375 C 0.664062 -5.691406 0.484375 -5.765625 0.214844 -5.8125 L 0.214844 -6.140625 L 2.773438 -6.140625 L 2.773438 -1.074219 C 2.773438 -0.785156 2.816406 -0.597656 2.902344 -0.515625 C 2.988281 -0.433594 3.152344 -0.367188 3.390625 -0.320312 L 3.390625 0 L 0.214844 0 Z "/>
</g>
<g id="glyph-0-3">
<path d="M 2.921875 -0.761719 C 3.140625 -0.761719 3.34375 -0.828125 3.527344 -0.957031 C 3.632812 -1.035156 3.757812 -1.15625 3.898438 -1.320312 L 3.898438 -3.269531 C 3.542969 -3.183594 3.230469 -3.042969 2.960938 -2.859375 C 2.507812 -2.542969 2.277344 -2.136719 2.277344 -1.648438 C 2.277344 -1.355469 2.34375 -1.136719 2.476562 -0.984375 C 2.609375 -0.835938 2.757812 -0.761719 2.921875 -0.761719 Z M 0.339844 -1.242188 C 0.339844 -1.84375 0.628906 -2.316406 1.203125 -2.667969 C 1.78125 -3.019531 2.6875 -3.375 3.917969 -3.730469 L 3.917969 -4.699219 C 3.917969 -5.09375 3.835938 -5.386719 3.667969 -5.574219 C 3.5 -5.765625 3.207031 -5.859375 2.78125 -5.859375 C 2.542969 -5.859375 2.34375 -5.816406 2.191406 -5.726562 C 2.035156 -5.636719 1.960938 -5.523438 1.960938 -5.390625 C 1.960938 -5.339844 1.96875 -5.296875 1.984375 -5.261719 C 2.003906 -5.226562 2.027344 -5.1875 2.0625 -5.148438 L 2.140625 -5.058594 C 2.203125 -4.984375 2.25 -4.902344 2.289062 -4.8125 C 2.324219 -4.726562 2.34375 -4.632812 2.34375 -4.53125 C 2.34375 -4.28125 2.261719 -4.085938 2.09375 -3.949219 C 1.925781 -3.8125 1.730469 -3.742188 1.511719 -3.742188 C 1.253906 -3.742188 1.035156 -3.820312 0.855469 -3.972656 C 0.675781 -4.125 0.585938 -4.34375 0.585938 -4.628906 C 0.585938 -5.140625 0.828125 -5.546875 1.308594 -5.847656 C 1.789062 -6.144531 2.382812 -6.296875 3.085938 -6.296875 C 3.839844 -6.296875 4.472656 -6.148438 4.980469 -5.859375 C 5.484375 -5.5625 5.734375 -5.023438 5.734375 -4.230469 L 5.734375 -1.003906 C 5.734375 -0.90625 5.761719 -0.824219 5.808594 -0.757812 C 5.859375 -0.691406 5.914062 -0.65625 5.976562 -0.65625 C 6.027344 -0.65625 6.074219 -0.667969 6.117188 -0.6875 C 6.15625 -0.707031 6.222656 -0.757812 6.308594 -0.847656 L 6.511719 -0.566406 C 6.25 -0.261719 5.960938 -0.0507812 5.644531 0.0703125 C 5.445312 0.148438 5.234375 0.1875 5.011719 0.1875 C 4.617188 0.1875 4.328125 0.0742188 4.148438 -0.15625 C 4.042969 -0.285156 3.96875 -0.480469 3.917969 -0.734375 C 3.550781 -0.367188 3.132812 -0.105469 2.667969 0.046875 C 2.386719 0.140625 2.109375 0.1875 1.835938 0.1875 C 1.472656 0.1875 1.128906 0.0742188 0.8125 -0.160156 C 0.496094 -0.390625 0.339844 -0.753906 0.339844 -1.242188 Z "/>
</g>
<g id="glyph-0-4">
<path d="M 0.214844 -0.320312 C 0.457031 -0.351562 0.636719 -0.414062 0.75 -0.515625 C 0.867188 -0.617188 0.925781 -0.824219 0.925781 -1.125 L 0.925781 -5.046875 C 0.925781 -5.316406 0.878906 -5.5 0.785156 -5.605469 C 0.691406 -5.710938 0.5 -5.777344 0.214844 -5.8125 L 0.214844 -6.140625 L 2.742188 -6.140625 L 2.742188 -5.183594 C 2.953125 -5.503906 3.222656 -5.769531 3.550781 -5.980469 C 3.878906 -6.191406 4.242188 -6.296875 4.640625 -6.296875 C 5.214844 -6.296875 5.660156 -6.148438 5.972656 -5.851562 C 6.289062 -5.558594 6.445312 -5.039062 6.445312 -4.296875 L 6.445312 -1.074219 C 6.445312 -0.773438 6.496094 -0.582031 6.597656 -0.496094 C 6.699219 -0.410156 6.871094 -0.347656 7.109375 -0.320312 L 7.109375 0 L 3.976562 0 L 3.976562 -0.320312 C 4.214844 -0.367188 4.378906 -0.433594 4.464844 -0.515625 C 4.550781 -0.597656 4.597656 -0.785156 4.597656 -1.074219 L 4.597656 -4.304688 C 4.597656 -4.609375 4.566406 -4.835938 4.503906 -4.988281 C 4.402344 -5.261719 4.195312 -5.398438 3.886719 -5.398438 C 3.65625 -5.398438 3.445312 -5.3125 3.25 -5.144531 C 3.058594 -4.980469 2.910156 -4.8125 2.804688 -4.640625 L 2.804688 -1.074219 C 2.804688 -0.785156 2.847656 -0.597656 2.9375 -0.515625 C 3.023438 -0.433594 3.1875 -0.367188 3.425781 -0.320312 L 3.425781 0 L 0.214844 0 Z "/>
</g>
<g id="glyph-0-5">
<path d="M 2.253906 -4.148438 C 2.253906 -3.636719 2.296875 -3.253906 2.382812 -3.007812 C 2.511719 -2.617188 2.761719 -2.421875 3.132812 -2.421875 C 3.464844 -2.421875 3.695312 -2.566406 3.820312 -2.859375 C 3.945312 -3.152344 4.011719 -3.582031 4.011719 -4.148438 C 4.011719 -4.746094 3.945312 -5.183594 3.8125 -5.457031 C 3.679688 -5.730469 3.453125 -5.867188 3.132812 -5.867188 C 2.78125 -5.867188 2.546875 -5.71875 2.429688 -5.425781 C 2.3125 -5.132812 2.253906 -4.707031 2.253906 -4.148438 Z M 1.476562 1.453125 C 1.476562 1.726562 1.625 1.941406 1.917969 2.097656 C 2.210938 2.253906 2.632812 2.332031 3.191406 2.332031 C 3.683594 2.332031 4.09375 2.292969 4.414062 2.214844 C 5.015625 2.066406 5.320312 1.792969 5.320312 1.398438 C 5.320312 1.167969 5.234375 0.996094 5.0625 0.882812 C 4.890625 0.765625 4.578125 0.710938 4.128906 0.710938 L 1.941406 0.710938 C 1.800781 0.824219 1.703125 0.917969 1.640625 0.996094 C 1.53125 1.140625 1.476562 1.292969 1.476562 1.453125 Z M 0.304688 1.542969 C 0.304688 1.351562 0.386719 1.15625 0.542969 0.953125 C 0.703125 0.75 0.976562 0.621094 1.367188 0.558594 L 1.367188 0.46875 C 1.105469 0.367188 0.917969 0.265625 0.800781 0.164062 C 0.59375 -0.0234375 0.488281 -0.273438 0.488281 -0.585938 C 0.488281 -0.960938 0.652344 -1.277344 0.980469 -1.542969 C 1.308594 -1.808594 1.628906 -1.992188 1.941406 -2.097656 L 1.941406 -2.1875 C 1.488281 -2.371094 1.125 -2.628906 0.847656 -2.96875 C 0.570312 -3.308594 0.429688 -3.71875 0.429688 -4.199219 C 0.429688 -4.808594 0.671875 -5.308594 1.160156 -5.703125 C 1.644531 -6.097656 2.300781 -6.296875 3.132812 -6.296875 C 3.445312 -6.296875 3.730469 -6.265625 3.992188 -6.203125 C 4.25 -6.144531 4.453125 -6.082031 4.597656 -6.015625 L 6.355469 -6.015625 L 6.355469 -5.304688 L 5.273438 -5.304688 C 5.445312 -5.136719 5.582031 -4.9375 5.671875 -4.714844 C 5.765625 -4.488281 5.8125 -4.242188 5.8125 -3.976562 C 5.8125 -3.144531 5.417969 -2.574219 4.621094 -2.265625 C 4.207031 -2.101562 3.6875 -2.019531 3.066406 -2.019531 C 2.933594 -2.019531 2.84375 -2.019531 2.800781 -2.023438 C 2.761719 -2.027344 2.699219 -2.03125 2.617188 -2.03125 C 2.488281 -2.007812 2.351562 -1.941406 2.207031 -1.824219 C 2.058594 -1.703125 1.984375 -1.554688 1.984375 -1.386719 C 1.984375 -1.253906 2.023438 -1.148438 2.097656 -1.074219 C 2.171875 -1 2.273438 -0.953125 2.402344 -0.9375 C 2.46875 -0.929688 2.605469 -0.921875 2.820312 -0.914062 C 3.03125 -0.90625 3.195312 -0.90625 3.3125 -0.90625 L 4.179688 -0.890625 C 4.671875 -0.882812 5.082031 -0.8125 5.417969 -0.675781 C 6.054688 -0.417969 6.375 0.0507812 6.375 0.722656 C 6.375 1.589844 5.894531 2.1875 4.941406 2.511719 C 4.4375 2.683594 3.804688 2.765625 3.039062 2.765625 C 2.414062 2.765625 1.878906 2.707031 1.425781 2.585938 C 0.679688 2.382812 0.304688 2.035156 0.304688 1.542969 Z "/>
</g>
<g id="glyph-0-6">
<path d="M 0.214844 -0.320312 C 0.449219 -0.375 0.613281 -0.449219 0.710938 -0.542969 C 0.808594 -0.636719 0.859375 -0.832031 0.859375 -1.125 L 0.859375 -7.917969 C 0.859375 -8.199219 0.8125 -8.382812 0.722656 -8.46875 C 0.632812 -8.554688 0.460938 -8.628906 0.214844 -8.683594 L 0.214844 -9.011719 L 2.742188 -9.011719 L 2.742188 -1.125 C 2.742188 -0.832031 2.789062 -0.636719 2.882812 -0.546875 C 2.980469 -0.457031 3.148438 -0.378906 3.390625 -0.320312 L 3.390625 0 L 0.214844 0 Z "/>
</g>
<g id="glyph-0-7">
<path d="M 0.300781 -3.058594 C 0.300781 -4.082031 0.570312 -4.878906 1.117188 -5.445312 C 1.660156 -6.011719 2.316406 -6.296875 3.085938 -6.296875 C 3.523438 -6.296875 3.9375 -6.179688 4.324219 -5.949219 C 4.710938 -5.71875 5.007812 -5.402344 5.214844 -4.992188 C 5.371094 -4.683594 5.480469 -4.285156 5.539062 -3.796875 C 5.570312 -3.566406 5.585938 -3.390625 5.585938 -3.269531 L 2.1875 -3.269531 C 2.21875 -2.734375 2.304688 -2.273438 2.449219 -1.882812 C 2.707031 -1.148438 3.167969 -0.78125 3.820312 -0.78125 C 4.132812 -0.78125 4.429688 -0.878906 4.707031 -1.074219 C 4.875 -1.191406 5.085938 -1.390625 5.339844 -1.667969 L 5.644531 -1.476562 C 5.230469 -0.800781 4.753906 -0.328125 4.210938 -0.0664062 C 3.859375 0.105469 3.457031 0.1875 3 0.1875 C 2.34375 0.1875 1.730469 -0.0703125 1.160156 -0.585938 C 0.585938 -1.101562 0.300781 -1.925781 0.300781 -3.058594 Z M 3.945312 -3.761719 C 3.9375 -4.546875 3.875 -5.097656 3.761719 -5.410156 C 3.648438 -5.722656 3.425781 -5.878906 3.085938 -5.878906 C 2.738281 -5.878906 2.5 -5.699219 2.371094 -5.339844 C 2.246094 -4.980469 2.171875 -4.453125 2.15625 -3.761719 Z "/>
</g>
<g id="glyph-0-8">
<path d="M 2.003906 -0.9375 C 2.003906 -1.25 2.113281 -1.515625 2.332031 -1.734375 C 2.550781 -1.953125 2.820312 -2.0625 3.132812 -2.0625 C 3.441406 -2.0625 3.703125 -1.953125 3.925781 -1.734375 C 4.148438 -1.515625 4.257812 -1.25 4.257812 -0.9375 C 4.257812 -0.625 4.148438 -0.359375 3.925781 -0.140625 C 3.703125 0.078125 3.441406 0.1875 3.132812 0.1875 C 2.820312 0.1875 2.554688 0.078125 2.332031 -0.140625 C 2.113281 -0.359375 2.003906 -0.625 2.003906 -0.9375 Z M 0.710938 -7.277344 C 0.710938 -7.746094 0.914062 -8.179688 1.328125 -8.582031 C 1.742188 -8.980469 2.367188 -9.179688 3.203125 -9.179688 C 4.039062 -9.179688 4.695312 -8.972656 5.164062 -8.5625 C 5.636719 -8.152344 5.871094 -7.628906 5.871094 -6.992188 C 5.871094 -6.691406 5.824219 -6.425781 5.730469 -6.191406 C 5.554688 -5.761719 5.226562 -5.386719 4.746094 -5.066406 C 4.554688 -4.945312 4.425781 -4.859375 4.355469 -4.8125 C 4.285156 -4.769531 4.144531 -4.679688 3.933594 -4.550781 C 3.722656 -4.421875 3.574219 -4.273438 3.484375 -4.109375 C 3.398438 -3.945312 3.339844 -3.601562 3.3125 -3.085938 L 2.917969 -3.085938 L 2.902344 -3.652344 C 2.902344 -4.035156 3.066406 -4.523438 3.394531 -5.117188 C 3.722656 -5.710938 3.886719 -6.339844 3.886719 -7.003906 C 3.886719 -7.542969 3.792969 -7.960938 3.605469 -8.253906 C 3.417969 -8.550781 3.121094 -8.699219 2.707031 -8.699219 C 2.4375 -8.699219 2.246094 -8.640625 2.132812 -8.523438 C 2.015625 -8.410156 1.960938 -8.289062 1.960938 -8.15625 C 1.960938 -8.101562 1.96875 -8.054688 1.984375 -8.019531 C 2.003906 -7.984375 2.035156 -7.941406 2.082031 -7.882812 L 2.175781 -7.773438 C 2.273438 -7.652344 2.34375 -7.542969 2.386719 -7.441406 C 2.425781 -7.339844 2.449219 -7.214844 2.449219 -7.0625 C 2.449219 -6.816406 2.367188 -6.617188 2.199219 -6.472656 C 2.035156 -6.324219 1.839844 -6.25 1.609375 -6.25 C 1.367188 -6.25 1.15625 -6.335938 0.976562 -6.511719 C 0.796875 -6.6875 0.710938 -6.945312 0.710938 -7.277344 Z "/>
</g>
</g>
</defs>
<g fill="rgb(100%, 100%, 100%)" fill-opacity="1">
<use xlink:href="#glyph-0-0" x="30" y="30"/>
<use xlink:href="#glyph-0-1" x="38" y="30"/>
<use xlink:href="#glyph-0-2" x="43" y="30"/>
<use xlink:href="#glyph-0-3" x="47" y="30"/>
<use xlink:href="#glyph-0-4" x="54" y="30"/>
<use xlink:href="#glyph-0-5" x="61" y="30"/>
<use xlink:href="#glyph-0-6" x="68" y="30"/>
<use xlink:href="#glyph-0-7" x="72" y="30"/>
<use xlink:href="#glyph-0-8" x="78" y="30"/>
</g>
</svg>
