<?xml version="1.0" encoding="UTF-8"?>
<svg xmlns="http://www.w3.org/2000/svg" xmlns:xlink="http://www.w3.org/1999/xlink" width="1920" height="1080" viewBox="0 0 1920 1080">
<defs>
<g>
<g id="glyph-0-0">
<path d="M 0.242188 -0.882812 C 0.242188 -1.070312 0.304688 -1.230469 0.429688 -1.363281 C 0.550781 -1.492188 0.71875 -1.558594 0.925781 -1.558594 C 1.195312 -1.558594 1.554688 -1.394531 2.007812 -1.070312 C 2.460938 -0.746094 2.808594 -0.585938 3.058594 -0.585938 C 3.351562 -0.585938 3.605469 -0.6875 3.820312 -0.894531 C 4.03125 -1.101562 4.140625 -1.378906 4.140625 -1.730469 C 4.140625 -2.089844 4.019531 -2.390625 3.777344 -2.640625 C 3.535156 -2.890625 3.261719 -3.085938 2.957031 -3.222656 C 2.632812 -3.371094 2.261719 -3.480469 1.851562 -3.546875 C 1.582031 -3.589844 1.152344 -3.632812 0.5625 -3.671875 L 1.644531 -7.507812 L 5.21875 -7.507812 L 4.742188 -6.09375 L 1.65625 -6.09375 L 1.410156 -5.191406 C 2.269531 -5.167969 2.96875 -5.042969 3.503906 -4.816406 C 4.507812 -4.398438 5.011719 -3.652344 5.011719 -2.582031 C 5.011719 -1.800781 4.710938 -1.160156 4.113281 -0.652344 C 3.511719 -0.148438 2.757812 0.101562 1.851562 0.101562 C 1.390625 0.101562 1.007812 0.0117188 0.703125 -0.167969 C 0.398438 -0.347656 0.242188 -0.585938 0.242188 -0.882812 Z "/>
</g>
</g>
</defs>
<g fill="rgb(0%, 0%, 0%)" fill-opacity="1">
<use xlink:href="#glyph-0-0" x="30" y="28.333008"/>
</g>
</svg>
