<?xml version="1.0" encoding="UTF-8"?>
<svg xmlns="http://www.w3.org/2000/svg" xmlns:xlink="http://www.w3.org/1999/xlink" width="1920" height="1080" viewBox="0 0 1920 1080">
<defs>
<g>
<g id="glyph-0-0">
<path d="M 3.949219 -2.613281 L 2.980469 -5.429688 L 1.953125 -2.613281 Z M 2.53125 -6.375 L 3.507812 -6.375 L 5.820312 0 L 4.875 0 L 4.226562 -1.910156 L 1.707031 -1.910156 L 1.015625 0 L 0.128906 0 Z "/>
</g>
<g id="glyph-0-1">
<path d="M 2.367188 -4.785156 C 2.890625 -4.785156 3.316406 -4.65625 3.644531 -4.402344 C 3.972656 -4.148438 4.167969 -3.707031 4.238281 -3.085938 L 3.476562 -3.085938 C 3.429688 -3.371094 3.324219 -3.609375 3.160156 -3.800781 C 2.996094 -3.988281 2.730469 -4.085938 2.367188 -4.085938 C 1.867188 -4.085938 1.511719 -3.839844 1.296875 -3.355469 C 1.160156 -3.039062 1.089844 -2.652344 1.089844 -2.1875 C 1.089844 -1.722656 1.1875 -1.328125 1.382812 -1.011719 C 1.582031 -0.691406 1.890625 -0.535156 2.3125 -0.535156 C 2.636719 -0.535156 2.894531 -0.632812 3.085938 -0.832031 C 3.273438 -1.03125 3.40625 -1.300781 3.476562 -1.644531 L 4.238281 -1.644531 C 4.148438 -1.027344 3.933594 -0.578125 3.585938 -0.292969 C 3.238281 -0.0078125 2.792969 0.132812 2.253906 0.132812 C 1.644531 0.132812 1.160156 -0.0859375 0.796875 -0.53125 C 0.4375 -0.976562 0.257812 -1.53125 0.257812 -2.195312 C 0.257812 -3.011719 0.453125 -3.648438 0.851562 -4.101562 C 1.246094 -4.554688 1.753906 -4.785156 2.367188 -4.785156 Z "/>
</g>
<g id="glyph-0-2">
<path d="M 2.507812 -4.753906 C 2.839844 -4.753906 3.160156 -4.675781 3.46875 -4.519531 C 3.777344 -4.367188 4.011719 -4.164062 4.175781 -3.917969 C 4.332031 -3.683594 4.4375 -3.410156 4.488281 -3.097656 C 4.535156 -2.882812 4.558594 -2.542969 4.558594 -2.074219 L 1.148438 -2.074219 C 1.164062 -1.601562 1.277344 -1.226562 1.484375 -0.941406 C 1.691406 -0.65625 2.015625 -0.511719 2.453125 -0.511719 C 2.859375 -0.511719 3.1875 -0.648438 3.429688 -0.914062 C 3.566406 -1.070312 3.667969 -1.253906 3.722656 -1.457031 L 4.492188 -1.457031 C 4.472656 -1.289062 4.40625 -1.097656 4.289062 -0.886719 C 4.175781 -0.675781 4.046875 -0.507812 3.90625 -0.375 C 3.667969 -0.140625 3.375 0.015625 3.027344 0.09375 C 2.839844 0.140625 2.625 0.164062 2.386719 0.164062 C 1.808594 0.164062 1.316406 -0.046875 0.914062 -0.464844 C 0.511719 -0.886719 0.3125 -1.476562 0.3125 -2.234375 C 0.3125 -2.980469 0.515625 -3.589844 0.921875 -4.054688 C 1.324219 -4.519531 1.855469 -4.753906 2.507812 -4.753906 Z M 3.753906 -2.695312 C 3.722656 -3.035156 3.648438 -3.304688 3.535156 -3.507812 C 3.320312 -3.882812 2.960938 -4.070312 2.460938 -4.070312 C 2.101562 -4.070312 1.800781 -3.941406 1.558594 -3.683594 C 1.316406 -3.425781 1.1875 -3.09375 1.171875 -2.695312 Z "/>
</g>
<g id="glyph-0-3">
<path d="M 1.039062 -1.457031 C 1.0625 -1.199219 1.125 -1 1.234375 -0.859375 C 1.429688 -0.609375 1.769531 -0.480469 2.257812 -0.480469 C 2.546875 -0.480469 2.800781 -0.542969 3.019531 -0.671875 C 3.242188 -0.796875 3.351562 -0.992188 3.351562 -1.253906 C 3.351562 -1.453125 3.261719 -1.605469 3.085938 -1.710938 C 2.972656 -1.773438 2.75 -1.847656 2.417969 -1.929688 L 1.796875 -2.085938 C 1.402344 -2.1875 1.109375 -2.296875 0.921875 -2.417969 C 0.585938 -2.628906 0.417969 -2.921875 0.417969 -3.292969 C 0.417969 -3.734375 0.574219 -4.089844 0.890625 -4.363281 C 1.207031 -4.632812 1.636719 -4.769531 2.171875 -4.769531 C 2.871094 -4.769531 3.375 -4.566406 3.683594 -4.152344 C 3.878906 -3.894531 3.972656 -3.613281 3.96875 -3.3125 L 3.230469 -3.3125 C 3.214844 -3.488281 3.152344 -3.648438 3.042969 -3.792969 C 2.863281 -4 2.550781 -4.101562 2.109375 -4.101562 C 1.8125 -4.101562 1.589844 -4.046875 1.4375 -3.933594 C 1.285156 -3.820312 1.210938 -3.671875 1.210938 -3.484375 C 1.210938 -3.28125 1.3125 -3.121094 1.511719 -3 C 1.625 -2.925781 1.796875 -2.863281 2.023438 -2.808594 L 2.539062 -2.683594 C 3.101562 -2.546875 3.476562 -2.414062 3.667969 -2.289062 C 3.972656 -2.089844 4.125 -1.773438 4.125 -1.34375 C 4.125 -0.929688 3.964844 -0.574219 3.652344 -0.273438 C 3.339844 0.0273438 2.859375 0.179688 2.21875 0.179688 C 1.527344 0.179688 1.035156 0.0195312 0.75 -0.292969 C 0.460938 -0.605469 0.308594 -0.996094 0.285156 -1.457031 Z "/>
</g>
<g id="glyph-0-4">
<path d="M 1.066406 -2.269531 C 1.066406 -1.773438 1.171875 -1.355469 1.382812 -1.019531 C 1.59375 -0.683594 1.933594 -0.515625 2.398438 -0.515625 C 2.761719 -0.515625 3.058594 -0.671875 3.292969 -0.984375 C 3.527344 -1.292969 3.640625 -1.742188 3.640625 -2.320312 C 3.640625 -2.910156 3.523438 -3.34375 3.28125 -3.625 C 3.042969 -3.910156 2.746094 -4.050781 2.390625 -4.050781 C 1.996094 -4.050781 1.679688 -3.898438 1.433594 -3.597656 C 1.191406 -3.296875 1.066406 -2.855469 1.066406 -2.269531 Z M 2.242188 -4.730469 C 2.597656 -4.730469 2.898438 -4.65625 3.136719 -4.503906 C 3.277344 -4.417969 3.433594 -4.265625 3.613281 -4.050781 L 3.613281 -6.398438 L 4.363281 -6.398438 L 4.363281 0 L 3.660156 0 L 3.660156 -0.648438 C 3.476562 -0.359375 3.261719 -0.152344 3.011719 -0.0273438 C 2.761719 0.101562 2.476562 0.164062 2.15625 0.164062 C 1.640625 0.164062 1.191406 -0.0546875 0.8125 -0.488281 C 0.433594 -0.921875 0.242188 -1.503906 0.242188 -2.226562 C 0.242188 -2.902344 0.414062 -3.492188 0.761719 -3.988281 C 1.109375 -4.484375 1.601562 -4.730469 2.242188 -4.730469 Z "/>
</g>
<g id="glyph-0-5">
<rect x="0" y="0" width="0" height="0" mask="url(#mask-0)"/>
</g>
<g id="glyph-0-6">
<path d="M 0.953125 -4.648438 L 2.195312 -0.863281 L 3.496094 -4.648438 L 4.347656 -4.648438 L 2.597656 0 L 1.761719 0 L 0.046875 -4.648438 Z "/>
</g>
<g id="glyph-0-7">
<path d="M 0.574219 -4.628906 L 1.367188 -4.628906 L 1.367188 0 L 0.574219 0 Z M 0.574219 -6.375 L 1.367188 -6.375 L 1.367188 -5.492188 L 0.574219 -5.492188 Z "/>
</g>
<g id="glyph-0-8">
<path d="M 1.171875 -1.238281 C 1.171875 -1.011719 1.253906 -0.832031 1.417969 -0.703125 C 1.582031 -0.574219 1.78125 -0.507812 2.003906 -0.507812 C 2.28125 -0.507812 2.546875 -0.570312 2.804688 -0.699219 C 3.238281 -0.910156 3.457031 -1.257812 3.457031 -1.734375 L 3.457031 -2.367188 C 3.359375 -2.304688 3.238281 -2.253906 3.085938 -2.214844 C 2.9375 -2.171875 2.789062 -2.144531 2.644531 -2.125 L 2.171875 -2.066406 C 1.886719 -2.027344 1.675781 -1.96875 1.53125 -1.886719 C 1.292969 -1.75 1.171875 -1.535156 1.171875 -1.238281 Z M 3.066406 -2.816406 C 3.246094 -2.839844 3.363281 -2.914062 3.425781 -3.042969 C 3.460938 -3.113281 3.476562 -3.210938 3.476562 -3.34375 C 3.476562 -3.609375 3.382812 -3.800781 3.191406 -3.921875 C 3.003906 -4.042969 2.730469 -4.101562 2.378906 -4.101562 C 1.972656 -4.101562 1.679688 -3.992188 1.511719 -3.773438 C 1.414062 -3.652344 1.351562 -3.46875 1.324219 -3.230469 L 0.59375 -3.230469 C 0.609375 -3.804688 0.796875 -4.199219 1.152344 -4.425781 C 1.511719 -4.648438 1.925781 -4.761719 2.394531 -4.761719 C 2.941406 -4.761719 3.386719 -4.65625 3.730469 -4.449219 C 4.066406 -4.242188 4.238281 -3.917969 4.238281 -3.476562 L 4.238281 -0.796875 C 4.238281 -0.71875 4.253906 -0.652344 4.285156 -0.601562 C 4.320312 -0.554688 4.390625 -0.53125 4.496094 -0.53125 C 4.53125 -0.53125 4.570312 -0.53125 4.613281 -0.535156 C 4.65625 -0.539062 4.703125 -0.546875 4.753906 -0.554688 L 4.753906 0.0234375 C 4.632812 0.0585938 4.539062 0.078125 4.476562 0.0859375 C 4.410156 0.09375 4.324219 0.101562 4.214844 0.101562 C 3.945312 0.101562 3.75 0.00390625 3.628906 -0.1875 C 3.566406 -0.289062 3.519531 -0.429688 3.496094 -0.617188 C 3.335938 -0.410156 3.105469 -0.226562 2.808594 -0.0742188 C 2.511719 0.078125 2.183594 0.15625 1.824219 0.15625 C 1.390625 0.15625 1.039062 0.0234375 0.765625 -0.238281 C 0.492188 -0.5 0.355469 -0.824219 0.355469 -1.21875 C 0.355469 -1.652344 0.492188 -1.984375 0.757812 -2.222656 C 1.027344 -2.460938 1.382812 -2.605469 1.820312 -2.660156 Z "/>
</g>
<g id="glyph-0-9">
<path d="M 0.757812 -6.375 L 3.628906 -6.375 C 4.195312 -6.375 4.652344 -6.214844 5 -5.898438 C 5.347656 -5.578125 5.519531 -5.128906 5.519531 -4.550781 C 5.519531 -4.050781 5.367188 -3.617188 5.058594 -3.25 C 4.746094 -2.878906 4.269531 -2.695312 3.628906 -2.695312 L 1.625 -2.695312 L 1.625 0 L 0.757812 0 Z M 4.648438 -4.542969 C 4.648438 -5.011719 4.476562 -5.332031 4.128906 -5.5 C 3.9375 -5.589844 3.675781 -5.632812 3.34375 -5.632812 L 1.625 -5.632812 L 1.625 -3.425781 L 3.34375 -3.425781 C 3.730469 -3.425781 4.042969 -3.507812 4.285156 -3.671875 C 4.527344 -3.835938 4.648438 -4.128906 4.648438 -4.542969 Z "/>
</g>
<g id="glyph-0-10">
<path d="M 0.871094 -6.375 L 1.746094 -6.375 L 1.746094 0 L 0.871094 0 Z "/>
</g>
<g id="glyph-0-11">
<path d="M 2.628906 -6.480469 C 2.175781 -5.597656 1.882812 -4.949219 1.746094 -4.53125 C 1.539062 -3.898438 1.4375 -3.164062 1.4375 -2.335938 C 1.4375 -1.496094 1.554688 -0.730469 1.789062 -0.0351562 C 1.933594 0.394531 2.21875 1.011719 2.644531 1.8125 L 2.117188 1.8125 C 1.695312 1.152344 1.433594 0.734375 1.332031 0.550781 C 1.230469 0.367188 1.121094 0.121094 1.003906 -0.191406 C 0.839844 -0.621094 0.726562 -1.078125 0.664062 -1.5625 C 0.632812 -1.8125 0.617188 -2.054688 0.617188 -2.28125 C 0.617188 -3.140625 0.75 -3.902344 1.019531 -4.570312 C 1.191406 -4.996094 1.546875 -5.632812 2.085938 -6.480469 Z "/>
</g>
<g id="glyph-0-12">
<path d="M 0.699219 -6.375 L 1.570312 -6.375 L 1.570312 -3.742188 L 4.886719 -3.742188 L 4.886719 -6.375 L 5.761719 -6.375 L 5.761719 0 L 4.886719 0 L 4.886719 -2.980469 L 1.570312 -2.980469 L 1.570312 0 L 0.699219 0 Z "/>
</g>
<g id="glyph-0-13">
<path d="M 5.316406 -6.375 L 5.316406 -5.617188 L 3.167969 -5.617188 L 3.167969 0 L 2.292969 0 L 2.292969 -5.617188 L 0.144531 -5.617188 L 0.144531 -6.375 Z "/>
</g>
<g id="glyph-0-14">
<path d="M 1.242188 -2.058594 C 1.261719 -1.695312 1.347656 -1.402344 1.496094 -1.175781 C 1.785156 -0.753906 2.289062 -0.542969 3.011719 -0.542969 C 3.335938 -0.542969 3.632812 -0.589844 3.898438 -0.679688 C 4.414062 -0.859375 4.671875 -1.183594 4.671875 -1.644531 C 4.671875 -1.992188 4.5625 -2.238281 4.34375 -2.386719 C 4.125 -2.53125 3.78125 -2.65625 3.3125 -2.765625 L 2.449219 -2.960938 C 1.882812 -3.085938 1.484375 -3.226562 1.25 -3.382812 C 0.84375 -3.648438 0.640625 -4.046875 0.640625 -4.574219 C 0.640625 -5.148438 0.839844 -5.617188 1.238281 -5.984375 C 1.632812 -6.351562 2.195312 -6.535156 2.921875 -6.535156 C 3.589844 -6.535156 4.15625 -6.375 4.625 -6.054688 C 5.09375 -5.730469 5.324219 -5.214844 5.324219 -4.503906 L 4.515625 -4.503906 C 4.472656 -4.847656 4.378906 -5.109375 4.238281 -5.292969 C 3.972656 -5.625 3.527344 -5.789062 2.894531 -5.789062 C 2.386719 -5.789062 2.019531 -5.683594 1.796875 -5.46875 C 1.574219 -5.253906 1.460938 -5.007812 1.460938 -4.722656 C 1.460938 -4.410156 1.59375 -4.179688 1.851562 -4.035156 C 2.023438 -3.945312 2.410156 -3.828125 3.011719 -3.691406 L 3.90625 -3.484375 C 4.335938 -3.386719 4.671875 -3.253906 4.90625 -3.082031 C 5.308594 -2.785156 5.511719 -2.351562 5.511719 -1.785156 C 5.511719 -1.078125 5.253906 -0.574219 4.742188 -0.269531 C 4.230469 0.0351562 3.632812 0.1875 2.953125 0.1875 C 2.160156 0.1875 1.539062 -0.015625 1.089844 -0.421875 C 0.640625 -0.824219 0.421875 -1.367188 0.429688 -2.058594 Z "/>
</g>
<g id="glyph-0-15">
<path d="M 0.308594 1.8125 C 0.769531 0.917969 1.066406 0.261719 1.199219 -0.148438 C 1.402344 -0.769531 1.5 -1.5 1.5 -2.335938 C 1.5 -3.171875 1.382812 -3.9375 1.148438 -4.632812 C 1.003906 -5.058594 0.71875 -5.675781 0.296875 -6.480469 L 0.820312 -6.480469 C 1.265625 -5.769531 1.535156 -5.328125 1.628906 -5.164062 C 1.722656 -4.996094 1.824219 -4.765625 1.9375 -4.476562 C 2.074219 -4.113281 2.175781 -3.757812 2.234375 -3.402344 C 2.292969 -3.050781 2.320312 -2.710938 2.320312 -2.382812 C 2.320312 -1.527344 2.1875 -0.761719 1.914062 -0.0898438 C 1.742188 0.339844 1.390625 0.976562 0.851562 1.8125 Z "/>
</g>
</g>
<image id="source-11" x="0" y="0" width="0" height="0"/>
<mask id="mask-0">
<use xlink:href="#source-11"/>
</mask>
</defs>
<g fill="rgb(0%, 0%, 0%)" fill-opacity="1">
<use xlink:href="#glyph-0-0" x="30" y="26.844727"/>
<use xlink:href="#glyph-0-1" x="36" y="26.844727"/>
<use xlink:href="#glyph-0-1" x="40" y="26.844727"/>
<use xlink:href="#glyph-0-2" x="44" y="26.844727"/>
<use xlink:href="#glyph-0-3" x="49" y="26.844727"/>
<use xlink:href="#glyph-0-3" x="53" y="26.844727"/>
<use xlink:href="#glyph-0-2" x="57" y="26.844727"/>
<use xlink:href="#glyph-0-4" x="62" y="26.844727"/>
<use xlink:href="#glyph-0-5" x="67" y="26.844727"/>
<use xlink:href="#glyph-0-6" x="69" y="26.844727"/>
<use xlink:href="#glyph-0-7" x="73" y="26.844727"/>
<use xlink:href="#glyph-0-8" x="75" y="26.844727"/>
<use xlink:href="#glyph-0-5" x="80" y="26.844727"/>
<use xlink:href="#glyph-0-0" x="82" y="26.844727"/>
<use xlink:href="#glyph-0-9" x="88" y="26.844727"/>
<use xlink:href="#glyph-0-10" x="94" y="26.844727"/>
<use xlink:href="#glyph-0-3" x="96" y="26.844727"/>
<use xlink:href="#glyph-0-5" x="100" y="26.844727"/>
<use xlink:href="#glyph-0-11" x="102" y="26.844727"/>
<use xlink:href="#glyph-0-12" x="105" y="26.844727"/>
<use xlink:href="#glyph-0-13" x="111" y="26.844727"/>
<use xlink:href="#glyph-0-13" x="116" y="26.844727"/>
<use xlink:href="#glyph-0-9" x="121" y="26.844727"/>
<use xlink:href="#glyph-0-14" x="127" y="26.844727"/>
<use xlink:href="#glyph-0-15" x="133" y="26.844727"/>
</g>
</svg>
