<?xml version="1.0" encoding="UTF-8"?>
<svg xmlns="http://www.w3.org/2000/svg" xmlns:xlink="http://www.w3.org/1999/xlink" width="1920" height="1080" viewBox="0 0 1920 1080">
<defs>
<g>
<g id="glyph-0-0">
<path d="M 3.105469 -1.746094 C 3.269531 -1.316406 3.515625 -0.996094 3.839844 -0.785156 C 4.167969 -0.570312 4.550781 -0.464844 4.992188 -0.464844 C 5.675781 -0.464844 6.261719 -0.804688 6.746094 -1.484375 C 7.230469 -2.164062 7.472656 -3.113281 7.472656 -4.328125 C 7.472656 -5.492188 7.21875 -6.363281 6.71875 -6.941406 C 6.214844 -7.515625 5.628906 -7.804688 4.964844 -7.804688 C 4.496094 -7.804688 4.070312 -7.660156 3.683594 -7.371094 C 3.296875 -7.082031 3.105469 -6.800781 3.105469 -6.523438 Z M 0.0859375 3.921875 C 0.679688 3.882812 1.058594 3.757812 1.21875 3.542969 C 1.382812 3.328125 1.460938 2.988281 1.460938 2.527344 L 1.460938 -6.589844 C 1.460938 -7.070312 1.402344 -7.378906 1.285156 -7.515625 C 1.167969 -7.652344 0.949219 -7.71875 0.625 -7.71875 C 0.554688 -7.71875 0.492188 -7.714844 0.433594 -7.710938 C 0.371094 -7.703125 0.285156 -7.691406 0.171875 -7.671875 L 0.171875 -7.984375 L 1.074219 -8.277344 C 1.105469 -8.285156 1.742188 -8.503906 2.980469 -8.933594 C 3.011719 -8.933594 3.035156 -8.917969 3.050781 -8.890625 C 3.066406 -8.863281 3.074219 -8.828125 3.074219 -8.792969 L 3.074219 -7.511719 C 3.492188 -7.929688 3.859375 -8.238281 4.175781 -8.441406 C 4.746094 -8.796875 5.332031 -8.972656 5.933594 -8.972656 C 6.808594 -8.972656 7.558594 -8.601562 8.1875 -7.855469 C 8.816406 -7.113281 9.132812 -6.09375 9.132812 -4.804688 C 9.132812 -3.539062 8.753906 -2.390625 8 -1.359375 C 7.242188 -0.328125 6.292969 0.191406 5.144531 0.191406 C 4.789062 0.191406 4.484375 0.144531 4.226562 0.0585938 C 3.820312 -0.0742188 3.445312 -0.320312 3.105469 -0.675781 L 3.105469 2.429688 C 3.105469 3.070312 3.210938 3.460938 3.417969 3.609375 C 3.625 3.753906 4.082031 3.851562 4.785156 3.902344 L 4.785156 4.234375 L 0.0859375 4.234375 Z "/>
</g>
<g id="glyph-0-1">
<path d="M 3.007812 -8.792969 L 3.007812 -2.714844 C 3.007812 -2.285156 3.070312 -1.941406 3.191406 -1.679688 C 3.425781 -1.199219 3.855469 -0.957031 4.480469 -0.957031 C 4.910156 -0.957031 5.332031 -1.101562 5.742188 -1.386719 C 5.976562 -1.542969 6.214844 -1.761719 6.457031 -2.042969 L 6.457031 -7.246094 C 6.457031 -7.730469 6.359375 -8.050781 6.171875 -8.203125 C 5.980469 -8.355469 5.601562 -8.445312 5.03125 -8.476562 L 5.03125 -8.792969 L 8.097656 -8.792969 L 8.097656 -2.109375 C 8.097656 -1.679688 8.175781 -1.382812 8.332031 -1.21875 C 8.488281 -1.058594 8.8125 -0.988281 9.3125 -1.007812 L 9.3125 -0.742188 C 8.964844 -0.644531 8.710938 -0.574219 8.542969 -0.527344 C 8.378906 -0.480469 8.105469 -0.390625 7.71875 -0.265625 C 7.554688 -0.207031 7.195312 -0.0742188 6.636719 0.140625 C 6.605469 0.140625 6.585938 0.128906 6.578125 0.101562 C 6.574219 0.0703125 6.570312 0.0390625 6.570312 0 L 6.570312 -1.527344 C 6.140625 -1.015625 5.746094 -0.636719 5.394531 -0.390625 C 4.855469 -0.0117188 4.285156 0.179688 3.683594 0.179688 C 3.132812 0.179688 2.613281 -0.015625 2.125 -0.410156 C 1.632812 -0.796875 1.386719 -1.441406 1.386719 -2.355469 L 1.386719 -7.28125 C 1.386719 -7.789062 1.277344 -8.128906 1.0625 -8.296875 C 0.921875 -8.40625 0.625 -8.480469 0.171875 -8.527344 L 0.171875 -8.792969 Z "/>
</g>
<g id="glyph-0-2">
<path d="M 0.0859375 -0.3125 C 0.667969 -0.363281 1.054688 -0.46875 1.242188 -0.621094 C 1.433594 -0.777344 1.527344 -1.109375 1.527344 -1.613281 L 1.527344 -5.894531 C 1.527344 -6.523438 1.46875 -6.96875 1.351562 -7.238281 C 1.234375 -7.507812 1.023438 -7.644531 0.710938 -7.644531 C 0.648438 -7.644531 0.566406 -7.636719 0.460938 -7.621094 C 0.355469 -7.605469 0.246094 -7.582031 0.132812 -7.558594 L 0.132812 -7.871094 C 0.492188 -7.996094 0.863281 -8.128906 1.242188 -8.261719 C 1.621094 -8.394531 1.886719 -8.488281 2.03125 -8.542969 C 2.347656 -8.664062 2.675781 -8.800781 3.007812 -8.953125 C 3.054688 -8.953125 3.082031 -8.9375 3.089844 -8.90625 C 3.101562 -8.875 3.105469 -8.808594 3.105469 -8.707031 L 3.105469 -7.148438 C 3.511719 -7.710938 3.902344 -8.152344 4.277344 -8.46875 C 4.652344 -8.785156 5.042969 -8.945312 5.449219 -8.945312 C 5.773438 -8.945312 6.035156 -8.847656 6.238281 -8.652344 C 6.441406 -8.460938 6.542969 -8.21875 6.542969 -7.929688 C 6.542969 -7.667969 6.464844 -7.449219 6.308594 -7.273438 C 6.152344 -7.09375 5.960938 -7.007812 5.726562 -7.007812 C 5.484375 -7.007812 5.242188 -7.117188 5 -7.339844 C 4.753906 -7.5625 4.5625 -7.671875 4.425781 -7.671875 C 4.203125 -7.671875 3.929688 -7.492188 3.609375 -7.136719 C 3.285156 -6.777344 3.125 -6.410156 3.125 -6.027344 L 3.125 -1.746094 C 3.125 -1.203125 3.25 -0.824219 3.503906 -0.613281 C 3.757812 -0.402344 4.175781 -0.300781 4.765625 -0.3125 L 4.765625 0 L 0.0859375 0 Z "/>
</g>
<g id="glyph-0-3">
<path d="M 4.453125 -8.90625 C 5.34375 -8.90625 6.128906 -8.597656 6.796875 -7.980469 C 7.46875 -7.363281 7.804688 -6.488281 7.804688 -5.355469 L 1.777344 -5.355469 C 1.839844 -3.886719 2.171875 -2.816406 2.773438 -2.144531 C 3.375 -1.472656 4.085938 -1.140625 4.910156 -1.140625 C 5.574219 -1.140625 6.132812 -1.3125 6.589844 -1.660156 C 7.046875 -2.007812 7.464844 -2.503906 7.851562 -3.144531 L 8.183594 -3.027344 C 7.925781 -2.222656 7.4375 -1.480469 6.726562 -0.796875 C 6.015625 -0.113281 5.144531 0.226562 4.109375 0.226562 C 2.921875 0.226562 2 -0.222656 1.351562 -1.121094 C 0.703125 -2.019531 0.378906 -3.054688 0.378906 -4.226562 C 0.378906 -5.496094 0.757812 -6.59375 1.507812 -7.519531 C 2.261719 -8.445312 3.242188 -8.90625 4.453125 -8.90625 Z M 3.902344 -8.210938 C 3.179688 -8.210938 2.628906 -7.894531 2.25 -7.253906 C 2.046875 -6.910156 1.902344 -6.480469 1.8125 -5.960938 L 5.820312 -5.960938 C 5.75 -6.59375 5.628906 -7.066406 5.460938 -7.378906 C 5.148438 -7.933594 4.628906 -8.210938 3.902344 -8.210938 Z "/>
</g>
<g id="glyph-0-4">
<path d="M 4.605469 -8.972656 C 5.066406 -8.972656 5.492188 -8.871094 5.878906 -8.667969 C 6.128906 -8.535156 6.375 -8.351562 6.609375 -8.117188 L 6.609375 -11.136719 C 6.609375 -11.523438 6.566406 -11.789062 6.480469 -11.933594 C 6.394531 -12.078125 6.191406 -12.152344 5.867188 -12.152344 C 5.792969 -12.152344 5.726562 -12.148438 5.667969 -12.144531 C 5.609375 -12.136719 5.484375 -12.125 5.289062 -12.105469 L 5.289062 -12.417969 L 6.066406 -12.617188 C 6.351562 -12.695312 6.636719 -12.773438 6.921875 -12.855469 C 7.207031 -12.9375 7.457031 -13.015625 7.671875 -13.09375 C 7.773438 -13.125 7.941406 -13.183594 8.175781 -13.273438 L 8.230469 -13.253906 L 8.210938 -12.257812 C 8.207031 -11.898438 8.199219 -11.523438 8.195312 -11.140625 C 8.1875 -10.757812 8.183594 -10.378906 8.183594 -10.007812 L 8.164062 -2.25 C 8.164062 -1.839844 8.214844 -1.550781 8.316406 -1.386719 C 8.417969 -1.222656 8.6875 -1.140625 9.125 -1.140625 C 9.195312 -1.140625 9.261719 -1.140625 9.332031 -1.144531 C 9.402344 -1.148438 9.472656 -1.15625 9.542969 -1.167969 L 9.542969 -0.855469 C 9.503906 -0.84375 9.042969 -0.683594 8.164062 -0.378906 L 6.675781 0.179688 L 6.609375 0.09375 L 6.609375 -1.074219 C 6.253906 -0.6875 5.945312 -0.410156 5.6875 -0.246094 C 5.226562 0.0390625 4.691406 0.179688 4.082031 0.179688 C 3.007812 0.179688 2.132812 -0.234375 1.46875 -1.066406 C 0.800781 -1.898438 0.464844 -2.863281 0.464844 -3.960938 C 0.464844 -5.332031 0.867188 -6.511719 1.667969 -7.496094 C 2.46875 -8.480469 3.445312 -8.972656 4.605469 -8.972656 Z M 4.957031 -0.84375 C 5.449219 -0.84375 5.847656 -0.992188 6.152344 -1.28125 C 6.457031 -1.574219 6.609375 -1.847656 6.609375 -2.109375 L 6.609375 -6.179688 C 6.609375 -7.003906 6.386719 -7.585938 5.949219 -7.921875 C 5.507812 -8.261719 5.078125 -8.429688 4.660156 -8.429688 C 3.863281 -8.429688 3.242188 -8.078125 2.800781 -7.371094 C 2.359375 -6.667969 2.136719 -5.796875 2.136719 -4.765625 C 2.136719 -3.746094 2.371094 -2.839844 2.84375 -2.042969 C 3.316406 -1.246094 4.019531 -0.84375 4.957031 -0.84375 Z "/>
</g>
</g>
</defs>
<g fill="rgb(100%, 100%, 100%)" fill-opacity="1">
<use xlink:href="#glyph-0-0" x="30" y="34.583008"/>
<use xlink:href="#glyph-0-1" x="40" y="34.583008"/>
<use xlink:href="#glyph-0-2" x="50" y="34.583008"/>
<use xlink:href="#glyph-0-2" x="56" y="34.583008"/>
<use xlink:href="#glyph-0-3" x="62" y="34.583008"/>
<use xlink:href="#glyph-0-4" x="71" y="34.583008"/>
</g>
</svg>
